  0
SECTION
  2
HEADER
  9
$ACADVER
  1
AC1015
  9
$ACADMAINTVER
 70
     6
  9
$DWGCODEPAGE
  3
ANSI_950
  9
$INSBASE
 10
0.0
 20
0.0
 30
0.0
  9
$EXTMIN
 10
-90.0
 20
-90.0
 30
0.0
  9
$EXTMAX
 10
90.0
 20
90.0
 30
0.0
  9
$LIMMIN
 10
0.0
 20
0.0
  9
$LIMMAX
 10
420.0
 20
297.0
  9
$ORTHOMODE
 70
     0
  9
$REGENMODE
 70
     1
  9
$FILLMODE
 70
     1
  9
$QTEXTMODE
 70
     0
  9
$MIRRTEXT
 70
     1
  9
$LTSCALE
 40
1.0
  9
$ATTMODE
 70
     1
  9
$TEXTSIZE
 40
3.5
  9
$TRACEWID
 40
1.0
  9
$TEXTSTYLE
  7
Standard
  9
$CLAYER
  8
0
  9
$CELTYPE
  6
ByLayer
  9
$CECOLOR
 62
   256
  9
$CELTSCALE
 40
1.0
  9
$DISPSILH
 70
     0
  9
$DIMSCALE
 40
1.0
  9
$DIMASZ
 40
3.302
  9
$DIMEXO
 40
1.0
  9
$DIMDLI
 40
3.75
  9
$DIMRND
 40
0.0
  9
$DIMDLE
 40
0.0
  9
$DIMEXE
 40
1.0
  9
$DIMTP
 40
0.0
  9
$DIMTM
 40
0.0
  9
$DIMTXT
 40
3.5
  9
$DIMCEN
 40
2.5
  9
$DIMTSZ
 40
0.0
  9
$DIMTOL
 70
     0
  9
$DIMLIM
 70
     0
  9
$DIMTIH
 70
     1
  9
$DIMTOH
 70
     1
  9
$DIMSE1
 70
     0
  9
$DIMSE2
 70
     0
  9
$DIMTAD
 70
     1
  9
$DIMZIN
 70
     0
  9
$DIMBLK
  1

  9
$DIMASO
 70
     1
  9
$DIMSHO
 70
     1
  9
$DIMPOST
  1

  9
$DIMAPOST
  1

  9
$DIMALT
 70
     0
  9
$DIMALTD
 70
     3
  9
$DIMALTF
 40
0.0393700787
  9
$DIMLFAC
 40
1.0
  9
$DIMTOFL
 70
     1
  9
$DIMTVP
 40
0.0
  9
$DIMTIX
 70
     0
  9
$DIMSOXD
 70
     0
  9
$DIMSAH
 70
     0
  9
$DIMBLK1
  1

  9
$DIMBLK2
  1

  9
$DIMSTYLE
  2
ISO-25
  9
$DIMCLRD
 70
     0
  9
$DIMCLRE
 70
     0
  9
$DIMCLRT
 70
     0
  9
$DIMTFAC
 40
1.0
  9
$DIMGAP
 40
1.524
  9
$DIMJUST
 70
     0
  9
$DIMSD1
 70
     0
  9
$DIMSD2
 70
     0
  9
$DIMTOLJ
 70
     0
  9
$DIMTZIN
 70
     0
  9
$DIMALTZ
 70
     0
  9
$DIMALTTZ
 70
     0
  9
$DIMUPT
 70
     0
  9
$DIMDEC
 70
     2
  9
$DIMTDEC
 70
     2
  9
$DIMALTU
 70
     2
  9
$DIMALTTD
 70
     3
  9
$DIMTXSTY
  7
Standard
  9
$DIMAUNIT
 70
     0
  9
$DIMADEC
 70
     2
  9
$DIMALTRND
 40
0.0
  9
$DIMAZIN
 70
     0
  9
$DIMDSEP
 70
    44
  9
$DIMATFIT
 70
     3
  9
$DIMFRAC
 70
     0
  9
$DIMLDRBLK
  1

  9
$DIMLUNIT
 70
     2
  9
$DIMLWD
 70
    -2
  9
$DIMLWE
 70
    -2
  9
$DIMTMOVE
 70
     0
  9
$LUNITS
 70
     2
  9
$LUPREC
 70
     2
  9
$SKETCHINC
 40
1.0
  9
$FILLETRAD
 40
10.0
  9
$AUNITS
 70
     0
  9
$AUPREC
 70
     2
  9
$MENU
  1
.
  9
$ELEVATION
 40
0.0
  9
$PELEVATION
 40
0.0
  9
$THICKNESS
 40
0.0
  9
$LIMCHECK
 70
     0
  9
$CHAMFERA
 40
0.0
  9
$CHAMFERB
 40
0.0
  9
$CHAMFERC
 40
0.0
  9
$CHAMFERD
 40
0.0
  9
$SKPOLY
 70
     0
  9
$TDCREATE
 40
2459060.088819467
  9
$TDUCREATE
 40
2459059.755486134
  9
$TDUPDATE
 40
2459060.088872766
  9
$TDUUPDATE
 40
2459059.755539433
  9
$TDINDWG
 40
0.0000000116
  9
$TDUSRTIMER
 40
0.0000000116
  9
$USRTIMER
 70
     1
  9
$ANGBASE
 50
0.0
  9
$ANGDIR
 70
     0
  9
$PDMODE
 70
     0
  9
$PDSIZE
 40
-1.0
  9
$PLINEWID
 40
0.0
  9
$SPLFRAME
 70
     0
  9
$SPLINETYPE
 70
     6
  9
$SPLINESEGS
 70
     8
  9
$HANDSEED
  5
1DF
  9
$SURFTAB1
 70
     6
  9
$SURFTAB2
 70
     6
  9
$SURFTYPE
 70
     6
  9
$SURFU
 70
     6
  9
$SURFV
 70
     6
  9
$UCSBASE
  2

  9
$UCSNAME
  2

  9
$UCSORG
 10
0.0
 20
0.0
 30
0.0
  9
$UCSXDIR
 10
1.0
 20
0.0
 30
0.0
  9
$UCSYDIR
 10
0.0
 20
1.0
 30
0.0
  9
$UCSORTHOREF
  2

  9
$UCSORTHOVIEW
 70
     0
  9
$UCSORGTOP
 10
0.0
 20
0.0
 30
0.0
  9
$UCSORGBOTTOM
 10
0.0
 20
0.0
 30
0.0
  9
$UCSORGLEFT
 10
0.0
 20
0.0
 30
0.0
  9
$UCSORGRIGHT
 10
0.0
 20
0.0
 30
0.0
  9
$UCSORGFRONT
 10
0.0
 20
0.0
 30
0.0
  9
$UCSORGBACK
 10
0.0
 20
0.0
 30
0.0
  9
$PUCSBASE
  2

  9
$PUCSNAME
  2

  9
$PUCSORG
 10
0.0
 20
0.0
 30
0.0
  9
$PUCSXDIR
 10
1.0
 20
0.0
 30
0.0
  9
$PUCSYDIR
 10
0.0
 20
1.0
 30
0.0
  9
$PUCSORTHOREF
  2

  9
$PUCSORTHOVIEW
 70
     0
  9
$PUCSORGTOP
 10
0.0
 20
0.0
 30
0.0
  9
$PUCSORGBOTTOM
 10
0.0
 20
0.0
 30
0.0
  9
$PUCSORGLEFT
 10
0.0
 20
0.0
 30
0.0
  9
$PUCSORGRIGHT
 10
0.0
 20
0.0
 30
0.0
  9
$PUCSORGFRONT
 10
0.0
 20
0.0
 30
0.0
  9
$PUCSORGBACK
 10
0.0
 20
0.0
 30
0.0
  9
$USERI1
 70
     0
  9
$USERI2
 70
     0
  9
$USERI3
 70
     0
  9
$USERI4
 70
     0
  9
$USERI5
 70
     0
  9
$USERR1
 40
0.0
  9
$USERR2
 40
0.0
  9
$USERR3
 40
0.0
  9
$USERR4
 40
0.0
  9
$USERR5
 40
0.0
  9
$WORLDVIEW
 70
     1
  9
$SHADEDGE
 70
     3
  9
$SHADEDIF
 70
    70
  9
$TILEMODE
 70
     1
  9
$MAXACTVP
 70
    64
  9
$PINSBASE
 10
0.0
 20
0.0
 30
0.0
  9
$PLIMCHECK
 70
     0
  9
$PEXTMIN
 10
-90.0
 20
-90.0
 30
0.0
  9
$PEXTMAX
 10
90.0
 20
90.0
 30
0.0
  9
$PLIMMIN
 10
-108.4615384615
 20
-96.9230769231
  9
$PLIMMAX
 10
165.6923076923
 20
96.9230769231
  9
$UNITMODE
 70
     0
  9
$VISRETAIN
 70
     1
  9
$PLINEGEN
 70
     0
  9
$PSLTSCALE
 70
     1
  9
$TREEDEPTH
 70
  3020
  9
$CMLSTYLE
  2
Standard
  9
$CMLJUST
 70
     0
  9
$CMLSCALE
 40
20.0
  9
$PROXYGRAPHICS
 70
     1
  9
$MEASUREMENT
 70
     1
  9
$CELWEIGHT
370
    -1
  9
$ENDCAPS
280
     0
  9
$JOINSTYLE
280
     0
  9
$LWDISPLAY
290
     1
  9
$INSUNITS
 70
     4
  9
$HYPERLINKBASE
  1

  9
$STYLESHEET
  1

  9
$XEDIT
290
     1
  9
$CEPSNTYPE
380
     0
  9
$PSTYLEMODE
290
     1
  9
$FINGERPRINTGUID
  2
{2F54A020-67FE-4B60-91F6-AC1CCBB7CCEB}
  9
$VERSIONGUID
  2
{FAEB1C32-E019-11D5-929B-00C0DF256EC4}
  9
$EXTNAMES
290
     1
  9
$PSVPSCALE
 40
0.0
  9
$OLESTARTUP
290
     0
  0
ENDSEC
  0
SECTION
  2
CLASSES
  0
CLASS
  1
ACDBDICTIONARYWDFLT
  2
AcDbDictionaryWithDefault
  3
ObjectDBX Classes
 90
        0
280
     0
281
     0
  0
CLASS
  1
VISUALSTYLE
  2
AcDbVisualStyle
  3
ObjectDBX Classes
 90
     4095
280
     0
281
     0
  0
CLASS
  1
MATERIAL
  2
AcDbMaterial
  3
ObjectDBX Classes
 90
     1153
280
     0
281
     0
  0
CLASS
  1
SCALE
  2
AcDbScale
  3
ObjectDBX Classes
 90
     1153
280
     0
281
     0
  0
CLASS
  1
TABLESTYLE
  2
AcDbTableStyle
  3
ObjectDBX Classes
 90
     4095
280
     0
281
     0
  0
CLASS
  1
MLEADERSTYLE
  2
AcDbMLeaderStyle
  3
ACDB_MLEADERSTYLE_CLASS
 90
     4095
280
     0
281
     0
  0
CLASS
  1
SUN
  2
AcDbSun
  3
SCENEOE
 90
     1153
280
     0
281
     0
  0
CLASS
  1
ACDBPLACEHOLDER
  2
AcDbPlaceHolder
  3
ObjectDBX Classes
 90
        0
280
     0
281
     0
  0
CLASS
  1
LAYOUT
  2
AcDbLayout
  3
ObjectDBX Classes
 90
        0
280
     0
281
     0
  0
ENDSEC
  0
SECTION
  2
TABLES
  0
TABLE
  2
VPORT
  5
8
330
0
100
AcDbSymbolTable
 70
     1
  0
VPORT
  5
29
330
8
100
AcDbSymbolTableRecord
100
AcDbViewportTableRecord
  2
*Active
 70
     0
 10
0.0
 20
0.0
 11
1.0
 21
1.0
 12
0.0
 22
0.0
 13
0.0
 23
0.0
 14
10.0
 24
10.0
 15
10.0
 25
10.0
 16
0.0
 26
0.0
 36
1.0
 17
0.0
 27
0.0
 37
0.0
 40
183.6
 41
1.0
 42
50.0
 43
0.0
 44
0.0
 50
0.0
 51
0.0
 71
     0
 72
   100
 73
     1
 74
     3
 75
     0
 76
     0
 77
     0
 78
     0
281
     0
 65
     1
110
0.0
120
0.0
130
0.0
111
1.0
121
0.0
131
0.0
112
0.0
122
1.0
132
0.0
 79
     0
146
0.0
  0
ENDTAB
  0
TABLE
  2
LTYPE
  5
5
330
0
100
AcDbSymbolTable
 70
     6
  0
LTYPE
  5
14
330
5
100
AcDbSymbolTableRecord
100
AcDbLinetypeTableRecord
  2
ByBlock
 70
     0
  3

 72
    65
 73
     0
 40
0.0
  0
LTYPE
  5
15
330
5
100
AcDbSymbolTableRecord
100
AcDbLinetypeTableRecord
  2
ByLayer
 70
     0
  3

 72
    65
 73
     0
 40
0.0
  0
LTYPE
  5
16
330
5
100
AcDbSymbolTableRecord
100
AcDbLinetypeTableRecord
  2
Continuous
 70
     0
  3
Solid line
 72
    65
 73
     0
 40
0.0
  0
LTYPE
  5
6E
330
5
100
AcDbSymbolTableRecord
100
AcDbLinetypeTableRecord
  2
HIDDEN
 70
     0
  3
Hidden __ __ __ __ __ __ __ __ __ __ __ __ __ __
 72
    65
 73
     2
 40
1.905
 49
1.27
 74
     0
 49
-0.635
 74
     0
  0
LTYPE
  5
6F
330
5
100
AcDbSymbolTableRecord
100
AcDbLinetypeTableRecord
  2
PHANTOM
 70
     0
  3
Phantom ______  __  __  ______  __  __  ______
 72
    65
 73
     6
 40
12.7
 49
6.35
 74
     0
 49
-1.27
 74
     0
 49
1.27
 74
     0
 49
-1.27
 74
     0
 49
1.27
 74
     0
 49
-1.27
 74
     0
  0
LTYPE
  5
70
330
5
100
AcDbSymbolTableRecord
100
AcDbLinetypeTableRecord
  2
CENTER
 70
     0
  3
Center ____ _ ____ _ ____ _ ____ _ ____ _ ____
 72
    65
 73
     4
 40
10.16
 49
6.35
 74
     0
 49
-1.27
 74
     0
 49
1.27
 74
     0
 49
-1.27
 74
     0
  0
LTYPE
  5
71
330
5
100
AcDbSymbolTableRecord
100
AcDbLinetypeTableRecord
  2
CENTERX2
 70
     0
  3
Center (2x) ________  __  ________  __  _____
 72
    65
 73
     4
 40
20.32
 49
12.7
 74
     0
 49
-2.54
 74
     0
 49
2.54
 74
     0
 49
-2.54
 74
     0
  0
LTYPE
  5
72
330
5
100
AcDbSymbolTableRecord
100
AcDbLinetypeTableRecord
  2
DOT2
 70
     0
  3
Dot (.5x) ........................................
 72
    65
 73
     2
 40
0.635
 49
0.0
 74
     0
 49
-0.635
 74
     0
  0
ENDTAB
  0
TABLE
  2
LAYER
  5
2
330
0
100
AcDbSymbolTable
 70
     1
  0
LAYER
  5
10
330
2
100
AcDbSymbolTableRecord
100
AcDbLayerTableRecord
  2
0
 70
     0
 62
     7
  6
Continuous
370
    -3
390
F
  0
ENDTAB
  0
TABLE
  2
STYLE
  5
3
330
0
100
AcDbSymbolTable
 70
     1
  0
STYLE
  5
11
330
3
100
AcDbSymbolTableRecord
100
AcDbTextStyleTableRecord
  2
Standard
 70
     0
 40
0.0
 41
1.0
 50
0.0
 71
     0
 42
3.5
  3
txt
  4

  0
ENDTAB
  0
TABLE
  2
VIEW
  5
6
330
0
100
AcDbSymbolTable
 70
     0
  0
ENDTAB
  0
TABLE
  2
UCS
  5
7
330
0
100
AcDbSymbolTable
 70
     0
  0
ENDTAB
  0
TABLE
  2
APPID
  5
9
330
0
100
AcDbSymbolTable
 70
     1
  0
APPID
  5
12
330
9
100
AcDbSymbolTableRecord
100
AcDbRegAppTableRecord
  2
ACAD
 70
     0
  0
ENDTAB
  0
TABLE
  2
DIMSTYLE
  5
A
330
0
100
AcDbSymbolTable
 70
     1
100
AcDbDimStyleTable
  0
DIMSTYLE
105
27
330
A
100
AcDbSymbolTableRecord
100
AcDbDimStyleTableRecord
  2
ISO-25
 70
     0
 41
2.5
 42
0.625
 43
3.75
 44
1.25
 73
     0
 74
     0
 77
     1
 78
     8
140
2.5
141
2.5
143
0.0393700787
147
0.625
171
     3
172
     1
178
     0
271
     2
272
     2
274
     3
278
    44
283
     0
284
     8
340
11
  0
ENDTAB
  0
TABLE
  2
BLOCK_RECORD
  5
1
330
0
100
AcDbSymbolTable
 70
    10
  0
BLOCK_RECORD
  5
1F
330
1
100
AcDbSymbolTableRecord
100
AcDbBlockTableRecord
  2
*Model_Space
340
22
  0
BLOCK_RECORD
  5
1B
330
1
100
AcDbSymbolTableRecord
100
AcDbBlockTableRecord
  2
*Paper_Space
340
1E
  0
BLOCK_RECORD
  5
23
330
1
100
AcDbSymbolTableRecord
100
AcDbBlockTableRecord
  2
*Paper_Space0
340
26
  0
BLOCK_RECORD
  5
BB
330
1
100
AcDbSymbolTableRecord
100
AcDbBlockTableRecord
  2
*Paper_Space1
340
BC
  0
BLOCK_RECORD
  5
C7
330
1
100
AcDbSymbolTableRecord
100
AcDbBlockTableRecord
  2
*Paper_Space2
340
C8
  0
BLOCK_RECORD
  5
E3
330
1
100
AcDbSymbolTableRecord
100
AcDbBlockTableRecord
  2
*Paper_Space3
340
E4
  0
BLOCK_RECORD
  5
FF
330
1
100
AcDbSymbolTableRecord
100
AcDbBlockTableRecord
  2
*Paper_Space4
340
100
  0
BLOCK_RECORD
  5
10F
330
1
100
AcDbSymbolTableRecord
100
AcDbBlockTableRecord
  2
*Paper_Space5
340
110
  0
BLOCK_RECORD
  5
11F
330
1
100
AcDbSymbolTableRecord
100
AcDbBlockTableRecord
  2
*Paper_Space6
340
120
  0
BLOCK_RECORD
  5
133
330
1
100
AcDbSymbolTableRecord
100
AcDbBlockTableRecord
  2
*Paper_Space7
340
134
  0
BLOCK_RECORD
  5
15D
330
1
100
AcDbSymbolTableRecord
100
AcDbBlockTableRecord
  2
*Paper_Space8
340
15E
  0
BLOCK_RECORD
  5
187
330
1
100
AcDbSymbolTableRecord
100
AcDbBlockTableRecord
  2
*Paper_Space9
340
188
  0
ENDTAB
  0
ENDSEC
  0
SECTION
  2
BLOCKS
  0
BLOCK
  5
20
330
1F
100
AcDbEntity
  8
0
100
AcDbBlockBegin
  2
*Model_Space
 70
     0
 10
0.0
 20
0.0
 30
0.0
  3
*Model_Space
  1

  0
ENDBLK
  5
21
330
1F
100
AcDbEntity
  8
0
100
AcDbBlockEnd
  0
BLOCK
  5
1C
330
1B
100
AcDbEntity
 67
     1
  8
0
100
AcDbBlockBegin
  2
*Paper_Space
 70
     0
 10
0.0
 20
0.0
 30
0.0
  3
*Paper_Space
  1

  0
ENDBLK
  5
1D
330
1B
100
AcDbEntity
 67
     1
  8
0
100
AcDbBlockEnd
  0
BLOCK
  5
24
330
23
100
AcDbEntity
  8
0
100
AcDbBlockBegin
  2
*Paper_Space0
 70
     0
 10
0.0
 20
0.0
 30
0.0
  3
*Paper_Space0
  1

  0
CIRCLE
  5
A3
330
23
100
AcDbEntity
  8
0
  6
Continuous
 62
     7
370
    15
100
AcDbCircle
 10
-46.0
 20
80.0
 30
0.0
 40
1.699999999999996
  0
CIRCLE
  5
A4
330
23
100
AcDbEntity
  8
0
  6
Continuous
 62
     7
370
    15
100
AcDbCircle
 10
46.0
 20
80.0
 30
0.0
 40
1.699999999999996
  0
CIRCLE
  5
A7
330
23
100
AcDbEntity
  8
0
  6
Continuous
 62
     7
370
    15
100
AcDbCircle
 10
-76.8782217351
 20
-77.2724133595
 30
0.0
 40
1.699999999999989
  0
CIRCLE
  5
A8
330
23
100
AcDbEntity
  8
0
  6
Continuous
 62
     7
370
    15
100
AcDbCircle
 10
76.8782217351
 20
-77.2724133595
 30
0.0
 40
1.699999999999989
  0
CIRCLE
  5
A9
330
23
100
AcDbEntity
  8
0
  6
Continuous
 62
     7
370
    15
100
AcDbCircle
 10
-45.75
 20
61.25
 30
0.0
 40
1.699999999999989
  0
CIRCLE
  5
AA
330
23
100
AcDbEntity
  8
0
  6
Continuous
 62
     7
370
    15
100
AcDbCircle
 10
-45.75
 20
-15.25
 30
0.0
 40
1.699999999999982
  0
CIRCLE
  5
AB
330
23
100
AcDbEntity
  8
0
  6
Continuous
 62
     7
370
    15
100
AcDbCircle
 10
45.75
 20
-15.25
 30
0.0
 40
1.699999999999982
  0
CIRCLE
  5
AC
330
23
100
AcDbEntity
  8
0
  6
Continuous
 62
     7
370
    15
100
AcDbCircle
 10
45.75
 20
61.25
 30
0.0
 40
1.699999999999989
  0
CIRCLE
  5
AD
330
23
100
AcDbEntity
  8
0
  6
Continuous
 62
     7
370
    15
100
AcDbCircle
 10
-60.0
 20
-30.0
 30
0.0
 40
1.699999999999996
  0
CIRCLE
  5
AE
330
23
100
AcDbEntity
  8
0
  6
Continuous
 62
     7
370
    15
100
AcDbCircle
 10
60.0
 20
-30.0
 30
0.0
 40
1.699999999999982
  0
CIRCLE
  5
AF
330
23
100
AcDbEntity
  8
0
  6
Continuous
 62
     7
370
    15
100
AcDbCircle
 10
60.0
 20
-70.0
 30
0.0
 40
1.700000000000017
  0
CIRCLE
  5
B0
330
23
100
AcDbEntity
  8
0
  6
Continuous
 62
     7
370
    15
100
AcDbCircle
 10
-60.0
 20
-70.0
 30
0.0
 40
1.70000000000001
  0
LINE
  5
B5
330
23
100
AcDbEntity
  8
0
  6
Continuous
 62
     7
370
    15
100
AcDbLine
 10
-81.0769515459
 20
-90.0
 30
0.0
 11
-90.0
 21
-74.544826719
 31
0.0
  0
LINE
  5
B6
330
23
100
AcDbEntity
  8
0
  6
Continuous
 62
     7
370
    15
100
AcDbLine
 10
90.0
 20
-74.544826719
 30
0.0
 11
81.0769515459
 21
-90.0
 31
0.0
  0
LINE
  5
B7
330
23
100
AcDbEntity
  8
0
  6
Continuous
 62
     7
370
    15
100
AcDbLine
 10
90.0
 20
90.0
 30
0.0
 11
-90.0
 21
90.0
 31
0.0
  0
LINE
  5
B8
330
23
100
AcDbEntity
  8
0
  6
Continuous
 62
     7
370
    15
100
AcDbLine
 10
90.0
 20
-74.544826719
 30
0.0
 11
90.0
 21
90.0
 31
0.0
  0
LINE
  5
B9
330
23
100
AcDbEntity
  8
0
  6
Continuous
 62
     7
370
    15
100
AcDbLine
 10
-81.0769515459
 20
-90.0
 30
0.0
 11
81.0769515459
 21
-90.0
 31
0.0
  0
LINE
  5
BA
330
23
100
AcDbEntity
  8
0
  6
Continuous
 62
     7
370
    15
100
AcDbLine
 10
-90.0
 20
90.0
 30
0.0
 11
-90.0
 21
-74.544826719
 31
0.0
  0
VIEWPORT
  5
1CB
330
23
100
AcDbEntity
  8
0
100
AcDbViewport
 10
0.0
 20
0.0
 30
0.0
 40
205.6
 41
156.0
 68
     1
 69
     1
 12
0.0
 22
0.0
 13
0.0
 23
0.0
 14
10.0
 24
10.0
 15
10.0
 25
10.0
 16
0.0
 26
0.0
 36
1.0
 17
0.0
 27
0.0
 37
0.0
 42
50.0
 43
0.0
 44
0.0
 45
183.6
 50
0.0
 51
0.0
 72
   100
 90
   557152
  1

281
     0
 71
     1
 74
     0
110
0.0
120
0.0
130
0.0
111
1.0
121
0.0
131
0.0
112
0.0
122
1.0
132
0.0
 79
     0
146
0.0
  0
ENDBLK
  5
25
330
23
100
AcDbEntity
  8
0
100
AcDbBlockEnd
  0
BLOCK
  5
BD
330
BB
100
AcDbEntity
  8
0
100
AcDbBlockBegin
  2
*Paper_Space1
 70
     0
 10
0.0
 20
0.0
 30
0.0
  3
*Paper_Space1
  1

  0
LINE
  5
C3
330
BB
100
AcDbEntity
  8
0
  6
Continuous
 62
     7
370
    15
100
AcDbLine
 10
90.0
 20
-5.0
 30
0.0
 11
90.0
 21
0.0
 31
0.0
  0
LINE
  5
C4
330
BB
100
AcDbEntity
  8
0
  6
Continuous
 62
     7
370
    15
100
AcDbLine
 10
90.0
 20
-5.0
 30
0.0
 11
-90.0
 21
-5.0
 31
0.0
  0
LINE
  5
C5
330
BB
100
AcDbEntity
  8
0
  6
Continuous
 62
     7
370
    15
100
AcDbLine
 10
90.0
 20
0.0
 30
0.0
 11
-90.0
 21
0.0
 31
0.0
  0
LINE
  5
C6
330
BB
100
AcDbEntity
  8
0
  6
Continuous
 62
     7
370
    15
100
AcDbLine
 10
-90.0
 20
-5.0
 30
0.0
 11
-90.0
 21
0.0
 31
0.0
  0
VIEWPORT
  5
1CD
330
BB
100
AcDbEntity
  8
0
100
AcDbViewport
 10
0.0
 20
0.0
 30
0.0
 40
205.6
 41
156.0
 68
     1
 69
     1
 12
0.0
 22
0.0
 13
0.0
 23
0.0
 14
10.0
 24
10.0
 15
10.0
 25
10.0
 16
0.0
 26
0.0
 36
1.0
 17
0.0
 27
0.0
 37
0.0
 42
50.0
 43
0.0
 44
0.0
 45
183.6
 50
0.0
 51
0.0
 72
   100
 90
   557152
  1

281
     0
 71
     1
 74
     0
110
0.0
120
0.0
130
0.0
111
1.0
121
0.0
131
0.0
112
0.0
122
1.0
132
0.0
 79
     0
146
0.0
  0
ENDBLK
  5
BE
330
BB
100
AcDbEntity
  8
0
100
AcDbBlockEnd
  0
BLOCK
  5
C9
330
C7
100
AcDbEntity
  8
0
100
AcDbBlockBegin
  2
*Paper_Space2
 70
     0
 10
0.0
 20
0.0
 30
0.0
  3
*Paper_Space2
  1

  0
CIRCLE
  5
CB
330
C7
100
AcDbEntity
  8
0
  6
Continuous
 62
     7
370
    15
100
AcDbCircle
 10
-46.0
 20
80.0
 30
0.0
 40
1.699999999999996
  0
CIRCLE
  5
CC
330
C7
100
AcDbEntity
  8
0
  6
Continuous
 62
     7
370
    15
100
AcDbCircle
 10
46.0
 20
80.0
 30
0.0
 40
1.699999999999996
  0
CIRCLE
  5
CF
330
C7
100
AcDbEntity
  8
0
  6
Continuous
 62
     7
370
    15
100
AcDbCircle
 10
-76.8782217351
 20
-77.2724133595
 30
0.0
 40
1.699999999999989
  0
CIRCLE
  5
D0
330
C7
100
AcDbEntity
  8
0
  6
Continuous
 62
     7
370
    15
100
AcDbCircle
 10
76.8782217351
 20
-77.2724133595
 30
0.0
 40
1.699999999999989
  0
CIRCLE
  5
D1
330
C7
100
AcDbEntity
  8
0
  6
Continuous
 62
     7
370
    15
100
AcDbCircle
 10
-45.75
 20
61.25
 30
0.0
 40
1.699999999999989
  0
CIRCLE
  5
D2
330
C7
100
AcDbEntity
  8
0
  6
Continuous
 62
     7
370
    15
100
AcDbCircle
 10
-45.75
 20
-15.25
 30
0.0
 40
1.699999999999982
  0
CIRCLE
  5
D3
330
C7
100
AcDbEntity
  8
0
  6
Continuous
 62
     7
370
    15
100
AcDbCircle
 10
45.75
 20
-15.25
 30
0.0
 40
1.699999999999982
  0
CIRCLE
  5
D4
330
C7
100
AcDbEntity
  8
0
  6
Continuous
 62
     7
370
    15
100
AcDbCircle
 10
45.75
 20
61.25
 30
0.0
 40
1.699999999999989
  0
CIRCLE
  5
D5
330
C7
100
AcDbEntity
  8
0
  6
Continuous
 62
     7
370
    15
100
AcDbCircle
 10
-60.0
 20
-30.0
 30
0.0
 40
1.699999999999996
  0
CIRCLE
  5
D6
330
C7
100
AcDbEntity
  8
0
  6
Continuous
 62
     7
370
    15
100
AcDbCircle
 10
60.0
 20
-30.0
 30
0.0
 40
1.699999999999982
  0
CIRCLE
  5
D7
330
C7
100
AcDbEntity
  8
0
  6
Continuous
 62
     7
370
    15
100
AcDbCircle
 10
60.0
 20
-70.0
 30
0.0
 40
1.700000000000017
  0
CIRCLE
  5
D8
330
C7
100
AcDbEntity
  8
0
  6
Continuous
 62
     7
370
    15
100
AcDbCircle
 10
-60.0
 20
-70.0
 30
0.0
 40
1.70000000000001
  0
LINE
  5
DD
330
C7
100
AcDbEntity
  8
0
  6
Continuous
 62
     7
370
    15
100
AcDbLine
 10
-81.0769515459
 20
-90.0
 30
0.0
 11
-90.0
 21
-74.544826719
 31
0.0
  0
LINE
  5
DE
330
C7
100
AcDbEntity
  8
0
  6
Continuous
 62
     7
370
    15
100
AcDbLine
 10
90.0
 20
-74.544826719
 30
0.0
 11
81.0769515459
 21
-90.0
 31
0.0
  0
LINE
  5
DF
330
C7
100
AcDbEntity
  8
0
  6
Continuous
 62
     7
370
    15
100
AcDbLine
 10
90.0
 20
90.0
 30
0.0
 11
-90.0
 21
90.0
 31
0.0
  0
LINE
  5
E0
330
C7
100
AcDbEntity
  8
0
  6
Continuous
 62
     7
370
    15
100
AcDbLine
 10
90.0
 20
-74.544826719
 30
0.0
 11
90.0
 21
90.0
 31
0.0
  0
LINE
  5
E1
330
C7
100
AcDbEntity
  8
0
  6
Continuous
 62
     7
370
    15
100
AcDbLine
 10
-81.0769515459
 20
-90.0
 30
0.0
 11
81.0769515459
 21
-90.0
 31
0.0
  0
LINE
  5
E2
330
C7
100
AcDbEntity
  8
0
  6
Continuous
 62
     7
370
    15
100
AcDbLine
 10
-90.0
 20
90.0
 30
0.0
 11
-90.0
 21
-74.544826719
 31
0.0
  0
VIEWPORT
  5
1CF
330
C7
100
AcDbEntity
  8
0
100
AcDbViewport
 10
0.0
 20
0.0
 30
0.0
 40
205.6
 41
156.0
 68
     1
 69
     1
 12
0.0
 22
0.0
 13
0.0
 23
0.0
 14
10.0
 24
10.0
 15
10.0
 25
10.0
 16
0.0
 26
0.0
 36
1.0
 17
0.0
 27
0.0
 37
0.0
 42
50.0
 43
0.0
 44
0.0
 45
183.6
 50
0.0
 51
0.0
 72
   100
 90
   557152
  1

281
     0
 71
     1
 74
     0
110
0.0
120
0.0
130
0.0
111
1.0
121
0.0
131
0.0
112
0.0
122
1.0
132
0.0
 79
     0
146
0.0
  0
ENDBLK
  5
CA
330
C7
100
AcDbEntity
  8
0
100
AcDbBlockEnd
  0
BLOCK
  5
E5
330
E3
100
AcDbEntity
  8
0
100
AcDbBlockBegin
  2
*Paper_Space3
 70
     0
 10
0.0
 20
0.0
 30
0.0
  3
*Paper_Space3
  1

  0
CIRCLE
  5
E9
330
E3
100
AcDbEntity
  8
0
  6
Continuous
 62
     7
370
    15
100
AcDbCircle
 10
46.0
 20
80.0
 30
0.0
 40
1.699999999999996
  0
CIRCLE
  5
EA
330
E3
100
AcDbEntity
  8
0
  6
Continuous
 62
     7
370
    15
100
AcDbCircle
 10
-46.0
 20
80.0
 30
0.0
 40
1.699999999999996
  0
CIRCLE
  5
EB
330
E3
100
AcDbEntity
  8
0
  6
Continuous
 62
     7
370
    15
100
AcDbCircle
 10
76.8782217351
 20
-77.2724133595
 30
0.0
 40
1.699999999999989
  0
CIRCLE
  5
EC
330
E3
100
AcDbEntity
  8
0
  6
Continuous
 62
     7
370
    15
100
AcDbCircle
 10
-76.8782217351
 20
-77.2724133595
 30
0.0
 40
1.699999999999989
  0
CIRCLE
  5
ED
330
E3
100
AcDbEntity
  8
0
  6
Continuous
 62
     7
370
    15
100
AcDbCircle
 10
45.75
 20
61.25
 30
0.0
 40
1.699999999999989
  0
CIRCLE
  5
EE
330
E3
100
AcDbEntity
  8
0
  6
Continuous
 62
     7
370
    15
100
AcDbCircle
 10
45.75
 20
-15.25
 30
0.0
 40
1.699999999999982
  0
CIRCLE
  5
EF
330
E3
100
AcDbEntity
  8
0
  6
Continuous
 62
     7
370
    15
100
AcDbCircle
 10
-45.75
 20
61.25
 30
0.0
 40
1.699999999999989
  0
CIRCLE
  5
F0
330
E3
100
AcDbEntity
  8
0
  6
Continuous
 62
     7
370
    15
100
AcDbCircle
 10
60.0
 20
-30.0
 30
0.0
 40
1.699999999999996
  0
CIRCLE
  5
F1
330
E3
100
AcDbEntity
  8
0
  6
Continuous
 62
     7
370
    15
100
AcDbCircle
 10
-60.0
 20
-30.0
 30
0.0
 40
1.699999999999982
  0
CIRCLE
  5
F2
330
E3
100
AcDbEntity
  8
0
  6
Continuous
 62
     7
370
    15
100
AcDbCircle
 10
-60.0
 20
-70.0
 30
0.0
 40
1.700000000000017
  0
CIRCLE
  5
F3
330
E3
100
AcDbEntity
  8
0
  6
Continuous
 62
     7
370
    15
100
AcDbCircle
 10
60.0
 20
-70.0
 30
0.0
 40
1.70000000000001
  0
CIRCLE
  5
F4
330
E3
100
AcDbEntity
  8
0
  6
Continuous
 62
     7
370
    15
100
AcDbCircle
 10
-45.75
 20
-15.25
 30
0.0
 40
1.699999999999982
  0
LINE
  5
F9
330
E3
100
AcDbEntity
  8
0
  6
Continuous
 62
     7
370
    15
100
AcDbLine
 10
81.0769515459
 20
-90.0
 30
0.0
 11
90.0
 21
-74.544826719
 31
0.0
  0
LINE
  5
FA
330
E3
100
AcDbEntity
  8
0
  6
Continuous
 62
     7
370
    15
100
AcDbLine
 10
-90.0
 20
-74.544826719
 30
0.0
 11
-81.0769515459
 21
-90.0
 31
0.0
  0
LINE
  5
FB
330
E3
100
AcDbEntity
  8
0
  6
Continuous
 62
     7
370
    15
100
AcDbLine
 10
-90.0
 20
90.0
 30
0.0
 11
90.0
 21
90.0
 31
0.0
  0
LINE
  5
FC
330
E3
100
AcDbEntity
  8
0
  6
Continuous
 62
     7
370
    15
100
AcDbLine
 10
-90.0
 20
-74.544826719
 30
0.0
 11
-90.0
 21
90.0
 31
0.0
  0
LINE
  5
FD
330
E3
100
AcDbEntity
  8
0
  6
Continuous
 62
     7
370
    15
100
AcDbLine
 10
81.0769515459
 20
-90.0
 30
0.0
 11
-81.0769515459
 21
-90.0
 31
0.0
  0
LINE
  5
FE
330
E3
100
AcDbEntity
  8
0
  6
Continuous
 62
     7
370
    15
100
AcDbLine
 10
90.0
 20
90.0
 30
0.0
 11
90.0
 21
-74.544826719
 31
0.0
  0
VIEWPORT
  5
1D1
330
E3
100
AcDbEntity
  8
0
100
AcDbViewport
 10
0.0
 20
0.0
 30
0.0
 40
205.6
 41
156.0
 68
     1
 69
     1
 12
0.0
 22
0.0
 13
0.0
 23
0.0
 14
10.0
 24
10.0
 15
10.0
 25
10.0
 16
0.0
 26
0.0
 36
1.0
 17
0.0
 27
0.0
 37
0.0
 42
50.0
 43
0.0
 44
0.0
 45
183.6
 50
0.0
 51
0.0
 72
   100
 90
   557152
  1

281
     0
 71
     1
 74
     0
110
0.0
120
0.0
130
0.0
111
1.0
121
0.0
131
0.0
112
0.0
122
1.0
132
0.0
 79
     0
146
0.0
  0
ENDBLK
  5
E6
330
E3
100
AcDbEntity
  8
0
100
AcDbBlockEnd
  0
BLOCK
  5
101
330
FF
100
AcDbEntity
  8
0
100
AcDbBlockBegin
  2
*Paper_Space4
 70
     0
 10
0.0
 20
0.0
 30
0.0
  3
*Paper_Space4
  1

  0
LINE
  5
10A
330
FF
100
AcDbEntity
  8
0
  6
Continuous
 62
     7
370
    15
100
AcDbLine
 10
5.0
 20
90.0
 30
0.0
 11
0.0
 21
90.0
 31
0.0
  0
LINE
  5
10B
330
FF
100
AcDbEntity
  8
0
  6
Continuous
 62
     7
370
    15
100
AcDbLine
 10
5.0
 20
90.0
 30
0.0
 11
5.0
 21
-90.0
 31
0.0
  0
LINE
  5
10C
330
FF
100
AcDbEntity
  8
0
  6
Continuous
 62
     7
370
    15
100
AcDbLine
 10
0.0
 20
-74.544826719
 30
0.0
 11
5.0
 21
-74.544826719
 31
0.0
  0
LINE
  5
10D
330
FF
100
AcDbEntity
  8
0
  6
Continuous
 62
     7
370
    15
100
AcDbLine
 10
0.0
 20
90.0
 30
0.0
 11
0.0
 21
-90.0
 31
0.0
  0
LINE
  5
10E
330
FF
100
AcDbEntity
  8
0
  6
Continuous
 62
     7
370
    15
100
AcDbLine
 10
0.0
 20
-90.0
 30
0.0
 11
5.0
 21
-90.0
 31
0.0
  0
VIEWPORT
  5
1D3
330
FF
100
AcDbEntity
  8
0
100
AcDbViewport
 10
0.0
 20
0.0
 30
0.0
 40
205.6
 41
156.0
 68
     1
 69
     1
 12
0.0
 22
0.0
 13
0.0
 23
0.0
 14
10.0
 24
10.0
 15
10.0
 25
10.0
 16
0.0
 26
0.0
 36
1.0
 17
0.0
 27
0.0
 37
0.0
 42
50.0
 43
0.0
 44
0.0
 45
183.6
 50
0.0
 51
0.0
 72
   100
 90
   557152
  1

281
     0
 71
     1
 74
     0
110
0.0
120
0.0
130
0.0
111
1.0
121
0.0
131
0.0
112
0.0
122
1.0
132
0.0
 79
     0
146
0.0
  0
ENDBLK
  5
102
330
FF
100
AcDbEntity
  8
0
100
AcDbBlockEnd
  0
BLOCK
  5
111
330
10F
100
AcDbEntity
  8
0
100
AcDbBlockBegin
  2
*Paper_Space5
 70
     0
 10
0.0
 20
0.0
 30
0.0
  3
*Paper_Space5
  1

  0
LINE
  5
11A
330
10F
100
AcDbEntity
  8
0
  6
Continuous
 62
     7
370
    15
100
AcDbLine
 10
0.0
 20
-74.544826719
 30
0.0
 11
-5.0
 21
-74.544826719
 31
0.0
  0
LINE
  5
11B
330
10F
100
AcDbEntity
  8
0
  6
Continuous
 62
     7
370
    15
100
AcDbLine
 10
-5.0
 20
-90.0
 30
0.0
 11
-5.0
 21
90.0
 31
0.0
  0
LINE
  5
11C
330
10F
100
AcDbEntity
  8
0
  6
Continuous
 62
     7
370
    15
100
AcDbLine
 10
-5.0
 20
90.0
 30
0.0
 11
0.0
 21
90.0
 31
0.0
  0
LINE
  5
11D
330
10F
100
AcDbEntity
  8
0
  6
Continuous
 62
     7
370
    15
100
AcDbLine
 10
0.0
 20
-90.0
 30
0.0
 11
0.0
 21
90.0
 31
0.0
  0
LINE
  5
11E
330
10F
100
AcDbEntity
  8
0
  6
Continuous
 62
     7
370
    15
100
AcDbLine
 10
0.0
 20
-90.0
 30
0.0
 11
-5.0
 21
-90.0
 31
0.0
  0
VIEWPORT
  5
1D5
330
10F
100
AcDbEntity
  8
0
100
AcDbViewport
 10
0.0
 20
0.0
 30
0.0
 40
205.6
 41
156.0
 68
     1
 69
     1
 12
0.0
 22
0.0
 13
0.0
 23
0.0
 14
10.0
 24
10.0
 15
10.0
 25
10.0
 16
0.0
 26
0.0
 36
1.0
 17
0.0
 27
0.0
 37
0.0
 42
50.0
 43
0.0
 44
0.0
 45
183.6
 50
0.0
 51
0.0
 72
   100
 90
   557152
  1

281
     0
 71
     1
 74
     0
110
0.0
120
0.0
130
0.0
111
1.0
121
0.0
131
0.0
112
0.0
122
1.0
132
0.0
 79
     0
146
0.0
  0
ENDBLK
  5
112
330
10F
100
AcDbEntity
  8
0
100
AcDbBlockEnd
  0
BLOCK
  5
121
330
11F
100
AcDbEntity
  8
0
100
AcDbBlockBegin
  2
*Paper_Space6
 70
     0
 10
0.0
 20
0.0
 30
0.0
  3
*Paper_Space6
  1

  0
LINE
  5
12D
330
11F
100
AcDbEntity
  8
0
  6
Continuous
 62
     7
370
    15
100
AcDbLine
 10
-81.0769515459
 20
0.0
 30
0.0
 11
-81.0769515459
 21
5.0
 31
0.0
  0
LINE
  5
12E
330
11F
100
AcDbEntity
  8
0
  6
Continuous
 62
     7
370
    15
100
AcDbLine
 10
-90.0
 20
5.0
 30
0.0
 11
90.0
 21
5.0
 31
0.0
  0
LINE
  5
12F
330
11F
100
AcDbEntity
  8
0
  6
Continuous
 62
     7
370
    15
100
AcDbLine
 10
81.0769515459
 20
0.0
 30
0.0
 11
81.0769515459
 21
5.0
 31
0.0
  0
LINE
  5
130
330
11F
100
AcDbEntity
  8
0
  6
Continuous
 62
     7
370
    15
100
AcDbLine
 10
-90.0
 20
0.0
 30
0.0
 11
90.0
 21
0.0
 31
0.0
  0
LINE
  5
131
330
11F
100
AcDbEntity
  8
0
  6
Continuous
 62
     7
370
    15
100
AcDbLine
 10
-90.0
 20
0.0
 30
0.0
 11
-90.0
 21
5.0
 31
0.0
  0
LINE
  5
132
330
11F
100
AcDbEntity
  8
0
  6
Continuous
 62
     7
370
    15
100
AcDbLine
 10
90.0
 20
0.0
 30
0.0
 11
90.0
 21
5.0
 31
0.0
  0
VIEWPORT
  5
1D7
330
11F
100
AcDbEntity
  8
0
100
AcDbViewport
 10
0.0
 20
0.0
 30
0.0
 40
205.6
 41
156.0
 68
     1
 69
     1
 12
0.0
 22
0.0
 13
0.0
 23
0.0
 14
10.0
 24
10.0
 15
10.0
 25
10.0
 16
0.0
 26
0.0
 36
1.0
 17
0.0
 27
0.0
 37
0.0
 42
50.0
 43
0.0
 44
0.0
 45
183.6
 50
0.0
 51
0.0
 72
   100
 90
   557152
  1

281
     0
 71
     1
 74
     0
110
0.0
120
0.0
130
0.0
111
1.0
121
0.0
131
0.0
112
0.0
122
1.0
132
0.0
 79
     0
146
0.0
  0
ENDBLK
  5
122
330
11F
100
AcDbEntity
  8
0
100
AcDbBlockEnd
  0
BLOCK
  5
135
330
133
100
AcDbEntity
  8
0
100
AcDbBlockBegin
  2
*Paper_Space7
 70
     0
 10
0.0
 20
0.0
 30
0.0
  3
*Paper_Space7
  1

  0
LWPOLYLINE
  5
13E
330
133
100
AcDbEntity
  8
0
  6
Continuous
 62
     7
370
    15
100
AcDbPolyline
 90
       20
 70
   128
 43
0.0
 10
-34.8603643125
 20
81.3656843482
 10
-34.9254964054
 20
81.854005931
 10
-35.1138346112
 20
82.364610207
 10
-35.4049695629
 20
82.8421652801
 10
-35.767352271
 20
83.234920648
 10
-36.1617129463
 20
83.5003151724
 10
-36.5453164904
 20
83.6095892385
 10
-36.876593507
 20
83.5509013058
 10
-37.1196449912
 20
83.3306111224
 10
-37.2481325433
 20
82.9725905478
 10
-37.2481325433
 20
82.5156366665
 10
-37.1196449912
 20
82.0092675219
 10
-36.876593507
 20
81.508356068
 10
-36.5453164904
 20
81.0671838333
 10
-36.1617129463
 20
80.7335586749
 10
-35.767352271
 20
80.5436340553
 10
-35.4049695629
 20
80.5179912542
 10
-35.1138346112
 20
80.6594090669
 10
-34.9254964054
 20
80.9525626791
 10
-34.8603643125
 20
81.3656843482
  0
LWPOLYLINE
  5
13F
330
133
100
AcDbEntity
  8
0
  6
Continuous
 62
     7
370
    15
100
AcDbPolyline
 90
       20
 70
   128
 43
0.0
 10
27.7892965006
 20
45.1988049944
 10
27.8544285935
 20
44.7104834116
 10
28.0427667993
 20
44.1998791356
 10
28.333901751
 20
43.7223240625
 10
28.6962844592
 20
43.3295686946
 10
29.0906451344
 20
43.0641741702
 10
29.4742486785
 20
42.9549001041
 10
29.8055256952
 20
43.0135880368
 10
30.0485771793
 20
43.2338782202
 10
30.1770647314
 20
43.5918987948
 10
30.1770647314
 20
44.0488526761
 10
30.0485771793
 20
44.5552218207
 10
29.8055256952
 20
45.0561332746
 10
29.4742486785
 20
45.4973055093
 10
29.0906451344
 20
45.8309306678
 10
28.6962844592
 20
46.0208552873
 10
28.333901751
 20
46.0464980884
 10
28.0427667993
 20
45.9050802757
 10
27.8544285935
 20
45.6119266635
 10
27.7892965006
 20
45.1988049944
  0
LWPOLYLINE
  5
144
330
133
100
AcDbEntity
  8
0
  6
Continuous
 62
     7
370
    15
100
AcDbPolyline
 90
       20
 70
   128
 43
0.0
 10
-56.6945642924
 20
-34.449044392
 10
-56.7596963852
 20
-33.9607228092
 10
-56.948034591
 20
-33.4501185332
 10
-57.2391695427
 20
-32.9725634601
 10
-57.6015522509
 20
-32.5798080922
 10
-57.9959129262
 20
-32.3144135679
 10
-58.3795164702
 20
-32.2051395017
 10
-58.7107934869
 20
-32.2638274344
 10
-58.9538449711
 20
-32.4841176178
 10
-59.0823325231
 20
-32.8421381925
 10
-59.0823325231
 20
-33.2990920737
 10
-58.9538449711
 20
-33.8054612183
 10
-58.7107934869
 20
-34.3063726722
 10
-58.3795164702
 20
-34.7475449069
 10
-57.9959129262
 20
-35.0811700654
 10
-57.6015522509
 20
-35.2710946849
 10
-57.2391695427
 20
-35.296737486
 10
-56.948034591
 20
-35.1553196733
 10
-56.7596963852
 20
-34.8621660611
 10
-56.6945642924
 20
-34.449044392
  0
LWPOLYLINE
  5
145
330
133
100
AcDbEntity
  8
0
  6
Continuous
 62
     7
370
    15
100
AcDbPolyline
 90
       20
 70
   128
 43
0.0
 10
49.6234964805
 20
-95.825154449
 10
49.6886285734
 20
-96.3134760318
 10
49.8769667792
 20
-96.8240803078
 10
50.1681017308
 20
-97.3016353809
 10
50.530484439
 20
-97.6943907488
 10
50.9248451143
 20
-97.9597852732
 10
51.3084486584
 20
-98.0690593393
 10
51.639725675
 20
-98.0103714066
 10
51.8827771592
 20
-97.7900812232
 10
52.0112647113
 20
-97.4320606486
 10
52.0112647113
 20
-96.9751067673
 10
51.8827771592
 20
-96.4687376227
 10
51.639725675
 20
-95.9678261688
 10
51.3084486584
 20
-95.5266539341
 10
50.9248451143
 20
-95.1930287757
 10
50.530484439
 20
-95.0031041561
 10
50.1681017308
 20
-94.977461355
 10
49.8769667792
 20
-95.1188791677
 10
49.6886285734
 20
-95.4120327799
 10
49.6234964805
 20
-95.825154449
  0
LWPOLYLINE
  5
146
330
133
100
AcDbEntity
  8
0
  6
Continuous
 62
     7
370
    15
100
AcDbPolyline
 90
       20
 70
   128
 43
0.0
 10
-34.6835876172
 20
65.9534931113
 10
-34.7487197101
 20
66.4418146942
 10
-34.9370579159
 20
66.9524189702
 10
-35.2281928676
 20
67.4299740432
 10
-35.5905755757
 20
67.8227294111
 10
-35.984936251
 20
68.0881239355
 10
-36.3685397951
 20
68.1973980017
 10
-36.6998168117
 20
68.138710069
 10
-36.9428682959
 20
67.9184198856
 10
-37.071355848
 20
67.5603993109
 10
-37.071355848
 20
67.1034454296
 10
-36.9428682959
 20
66.5970762851
 10
-36.6998168117
 20
66.0961648312
 10
-36.3685397951
 20
65.6549925965
 10
-35.984936251
 20
65.321367438
 10
-35.5905755757
 20
65.1314428185
 10
-35.2281928676
 20
65.1058000174
 10
-34.9370579159
 20
65.2472178301
 10
-34.7487197101
 20
65.5403714423
 10
-34.6835876172
 20
65.9534931113
  0
LWPOLYLINE
  5
147
330
133
100
AcDbEntity
  8
0
  6
Continuous
 62
     7
370
    15
100
AcDbPolyline
 90
       20
 70
   128
 43
0.0
 10
-37.0877506732
 20
4.8760147922
 10
-37.0226185803
 20
4.3876932093
 10
-36.8342803746
 20
3.8770889333
 10
-36.5431454229
 20
3.3995338603
 10
-36.1807627147
 20
3.0067784924
 10
-35.7864020394
 20
2.741383968
 10
-35.4027984954
 20
2.6321099018
 10
-35.0715214787
 20
2.6907978345
 10
-34.8284699945
 20
2.911088018
 10
-34.6999824424
 20
3.2691085926
 10
-34.6999824424
 20
3.7260624739
 10
-34.8284699945
 20
4.2324316184
 10
-35.0715214787
 20
4.7333430723
 10
-35.4027984954
 20
5.174515307
 10
-35.7864020394
 20
5.5081404655
 10
-36.1807627147
 20
5.698065085
 10
-36.5431454229
 20
5.7237078861
 10
-36.8342803746
 20
5.5822900734
 10
-37.0226185803
 20
5.2891364612
 10
-37.0877506732
 20
4.8760147922
  0
LWPOLYLINE
  5
148
330
133
100
AcDbEntity
  8
0
  6
Continuous
 62
     7
370
    15
100
AcDbPolyline
 90
       20
 70
   128
 43
0.0
 10
30.0166828614
 20
-33.8625501138
 10
29.9515507685
 20
-33.374228531
 10
29.7632125627
 20
-32.863624255
 10
29.472077611
 20
-32.3860691819
 10
29.1096949028
 20
-31.993313814
 10
28.7153342276
 20
-31.7279192896
 10
28.3317306835
 20
-31.6186452235
 10
28.0004536668
 20
-31.6773331562
 10
27.7574021827
 20
-31.8976233396
 10
27.6289146306
 20
-32.2556439142
 10
27.6289146306
 20
-32.7125977955
 10
27.7574021827
 20
-33.2189669401
 10
28.0004536668
 20
-33.7198783939
 10
28.3317306835
 20
-34.1610506287
 10
28.7153342276
 20
-34.4946757871
 10
29.1096949028
 20
-34.6846004067
 10
29.472077611
 20
-34.7102432078
 10
29.7632125627
 20
-34.5688253951
 10
29.9515507685
 20
-34.2756717829
 10
30.0166828614
 20
-33.8625501138
  0
LWPOLYLINE
  5
149
330
133
100
AcDbEntity
  8
0
  6
Continuous
 62
     7
370
    15
100
AcDbPolyline
 90
       20
 70
   128
 43
0.0
 10
27.6125198053
 20
29.9907157856
 10
27.6776518982
 20
29.5023942027
 10
27.865990104
 20
28.9917899267
 10
28.1571250557
 20
28.5142348536
 10
28.5195077639
 20
28.1214794858
 10
28.9138684391
 20
27.8560849614
 10
29.2974719832
 20
27.7468108952
 10
29.6287489999
 20
27.8054988279
 10
29.8718004841
 20
28.0257890113
 10
30.0002880361
 20
28.383809586
 10
30.0002880361
 20
28.8407634673
 10
29.8718004841
 20
29.3471326118
 10
29.6287489999
 20
29.8480440657
 10
29.2974719832
 20
30.2892163004
 10
28.9138684391
 20
30.6228414589
 10
28.5195077639
 20
30.8127660784
 10
28.1571250557
 20
30.8384088795
 10
27.865990104
 20
30.6969910668
 10
27.6776518982
 20
30.4038374546
 10
27.6125198053
 20
29.9907157856
  0
LWPOLYLINE
  5
14A
330
133
100
AcDbEntity
  8
0
  6
Continuous
 62
     7
370
    15
100
AcDbPolyline
 90
       20
 70
   128
 43
0.0
 10
-44.7598592491
 20
-2.7389481765
 10
-44.824991342
 20
-2.2506265937
 10
-45.0133295478
 20
-1.7400223176
 10
-45.3044644995
 20
-1.2624672446
 10
-45.6668472076
 20
-0.8697118767
 10
-46.0612078829
 20
-0.6043173523
 10
-46.444811427
 20
-0.4950432861
 10
-46.7760884436
 20
-0.5537312189
 10
-47.0191399278
 20
-0.7740214023
 10
-47.1476274799
 20
-1.1320419769
 10
-47.1476274799
 20
-1.5889958582
 10
-47.0191399278
 20
-2.0953650028
 10
-46.7760884436
 20
-2.5962764566
 10
-46.444811427
 20
-3.0374486914
 10
-46.0612078829
 20
-3.3710738498
 10
-45.6668472076
 20
-3.5609984694
 10
-45.3044644995
 20
-3.5866412705
 10
-45.0133295478
 20
-3.4452234578
 10
-44.824991342
 20
-3.1520698456
 10
-44.7598592491
 20
-2.7389481765
  0
LWPOLYLINE
  5
14B
330
133
100
AcDbEntity
  8
0
  6
Continuous
 62
     7
370
    15
100
AcDbPolyline
 90
       20
 70
   128
 43
0.0
 10
37.6887914372
 20
-50.3355410958
 10
37.7539235301
 20
-50.8238626786
 10
37.9422617359
 20
-51.3344669546
 10
38.2333966876
 20
-51.8120220277
 10
38.5957793958
 20
-52.2047773956
 10
38.990140071
 20
-52.47017192
 10
39.3737436151
 20
-52.5794459861
 10
39.7050206318
 20
-52.5207580534
 10
39.948072116
 20
-52.30046787
 10
40.076559668
 20
-51.9424472953
 10
40.076559668
 20
-51.4854934141
 10
39.948072116
 20
-50.9791242695
 10
39.7050206318
 20
-50.4782128156
 10
39.3737436151
 20
-50.0370405809
 10
38.990140071
 20
-49.7034154224
 10
38.5957793958
 20
-49.5134908029
 10
38.2333966876
 20
-49.4878480018
 10
37.9422617359
 20
-49.6292658145
 10
37.7539235301
 20
-49.9224194267
 10
37.6887914372
 20
-50.3355410958
  0
LWPOLYLINE
  5
14C
330
133
100
AcDbEntity
  8
0
  6
Continuous
 62
     7
370
    15
100
AcDbPolyline
 90
       20
 70
   128
 43
0.0
 10
37.6887914372
 20
-82.9971735712
 10
37.7539235301
 20
-83.485495154
 10
37.9422617359
 20
-83.99609943
 10
38.2333966876
 20
-84.4736545031
 10
38.5957793958
 20
-84.866409871
 10
38.990140071
 20
-85.1318043954
 10
39.3737436151
 20
-85.2410784615
 10
39.7050206318
 20
-85.1823905288
 10
39.948072116
 20
-84.9621003454
 10
40.076559668
 20
-84.6040797708
 10
40.076559668
 20
-84.1471258895
 10
39.948072116
 20
-83.6407567449
 10
39.7050206318
 20
-83.1398452911
 10
39.3737436151
 20
-82.6986730563
 10
38.990140071
 20
-82.3650478979
 10
38.5957793958
 20
-82.1751232783
 10
38.2333966876
 20
-82.1494804772
 10
37.9422617359
 20
-82.2908982899
 10
37.7539235301
 20
-82.5840519021
 10
37.6887914372
 20
-82.9971735712
  0
LWPOLYLINE
  5
14D
330
133
100
AcDbEntity
  8
0
  6
Continuous
 62
     7
370
    15
100
AcDbPolyline
 90
       20
 70
   128
 43
0.0
 10
-44.7598592491
 20
-35.4005806519
 10
-44.824991342
 20
-34.9122590691
 10
-45.0133295478
 20
-34.4016547931
 10
-45.3044644995
 20
-33.92409972
 10
-45.6668472076
 20
-33.5313443521
 10
-46.0612078829
 20
-33.2659498277
 10
-46.444811427
 20
-33.1566757616
 10
-46.7760884436
 20
-33.2153636943
 10
-47.0191399278
 20
-33.4356538777
 10
-47.1476274799
 20
-33.7936744523
 10
-47.1476274799
 20
-34.2506283336
 10
-47.0191399278
 20
-34.7569974782
 10
-46.7760884436
 20
-35.2579089321
 10
-46.444811427
 20
-35.6990811668
 10
-46.0612078829
 20
-36.0327063252
 10
-45.6668472076
 20
-36.2226309448
 10
-45.3044644995
 20
-36.2482737459
 10
-45.0133295478
 20
-36.1068559332
 10
-44.824991342
 20
-35.813702321
 10
-44.7598592491
 20
-35.4005806519
  0
LINE
  5
150
330
133
100
AcDbEntity
  8
0
  6
Continuous
 62
     7
370
    15
100
AcDbLine
 10
60.1040764009
 20
34.7092877581
 30
0.0
 11
63.6396103068
 21
36.7503080377
 31
0.0
  0
LINE
  5
151
330
133
100
AcDbEntity
  8
0
  6
Continuous
 62
     7
370
    15
100
AcDbLine
 10
63.6396103068
 20
-97.6072583631
 30
0.0
 11
63.6396103068
 21
36.7503080377
 31
0.0
  0
LINE
  5
152
330
133
100
AcDbEntity
  8
0
  6
Continuous
 62
     7
370
    15
100
AcDbLine
 10
63.6396103068
 20
-97.6072583631
 30
0.0
 11
60.1040764009
 21
-99.6482786426
 31
0.0
  0
LINE
  5
153
330
133
100
AcDbEntity
  8
0
  6
Continuous
 62
     7
370
    15
100
AcDbLine
 10
60.1040764009
 20
-99.6482786426
 30
0.0
 11
60.1040764009
 21
34.7092877581
 31
0.0
  0
LINE
  5
154
330
133
100
AcDbEntity
  8
0
  6
Continuous
 62
     7
370
    15
100
AcDbLine
 10
60.1040764009
 20
34.7092877581
 30
0.0
 11
-67.1751442127
 21
108.1860178222
 31
0.0
  0
LINE
  5
155
330
133
100
AcDbEntity
  8
0
  6
Continuous
 62
     7
370
    15
100
AcDbLine
 10
-67.1751442127
 20
108.1860178222
 30
0.0
 11
-63.6396103068
 21
110.2270381017
 31
0.0
  0
LINE
  5
156
330
133
100
AcDbEntity
  8
0
  6
Continuous
 62
     7
370
    15
100
AcDbLine
 10
63.6396103068
 20
36.7503080377
 30
0.0
 11
-63.6396103068
 21
110.2270381017
 31
0.0
  0
LINE
  5
157
330
133
100
AcDbEntity
  8
0
  6
Continuous
 62
     7
370
    15
100
AcDbLine
 10
-60.8655961419
 20
-42.4337528873
 30
0.0
 11
53.7945283301
 21
-108.6256338112
 31
0.0
  0
LINE
  5
158
330
133
100
AcDbEntity
  8
0
  6
Continuous
 62
     7
370
    15
100
AcDbLine
 10
-60.8655961419
 20
-42.4337528873
 30
0.0
 11
-67.1751442127
 21
-26.1715485786
 31
0.0
  0
LINE
  5
159
330
133
100
AcDbEntity
  8
0
  6
Continuous
 62
     7
370
    15
100
AcDbLine
 10
-67.1751442127
 20
108.1860178222
 30
0.0
 11
-67.1751442127
 21
-26.1715485786
 31
0.0
  0
LINE
  5
15A
330
133
100
AcDbEntity
  8
0
  6
Continuous
 62
     7
370
    15
100
AcDbLine
 10
60.1040764009
 20
-99.6482786426
 30
0.0
 11
53.7945283301
 21
-108.6256338112
 31
0.0
  0
LINE
  5
15B
330
133
100
AcDbEntity
  8
0
  6
Continuous
 62
     7
370
    15
100
AcDbLine
 10
57.330062236
 20
-106.5846135317
 30
0.0
 11
53.7945283301
 21
-108.6256338112
 31
0.0
  0
LINE
  5
15C
330
133
100
AcDbEntity
  8
0
  6
Continuous
 62
     7
370
    15
100
AcDbLine
 10
63.6396103068
 20
-97.6072583631
 30
0.0
 11
57.330062236
 21
-106.5846135317
 31
0.0
  0
VIEWPORT
  5
1D9
330
133
100
AcDbEntity
  8
0
100
AcDbViewport
 10
0.0
 20
0.0
 30
0.0
 40
205.6
 41
156.0
 68
     1
 69
     1
 12
0.0
 22
0.0
 13
0.0
 23
0.0
 14
10.0
 24
10.0
 15
10.0
 25
10.0
 16
0.0
 26
0.0
 36
1.0
 17
0.0
 27
0.0
 37
0.0
 42
50.0
 43
0.0
 44
0.0
 45
183.6
 50
0.0
 51
0.0
 72
   100
 90
   557152
  1

281
     0
 71
     1
 74
     0
110
0.0
120
0.0
130
0.0
111
1.0
121
0.0
131
0.0
112
0.0
122
1.0
132
0.0
 79
     0
146
0.0
  0
ENDBLK
  5
136
330
133
100
AcDbEntity
  8
0
100
AcDbBlockEnd
  0
BLOCK
  5
15F
330
15D
100
AcDbEntity
  8
0
100
AcDbBlockBegin
  2
*Paper_Space8
 70
     0
 10
0.0
 20
0.0
 30
0.0
  3
*Paper_Space8
  1

  0
LWPOLYLINE
  5
168
330
15D
100
AcDbEntity
  8
0
  6
Continuous
 62
     7
370
    15
100
AcDbPolyline
 90
       20
 70
   128
 43
0.0
 10
-41.513199735
 20
76.9440481566
 10
-41.5946640976
 20
77.4393354297
 10
-41.8302292578
 20
77.9252311779
 10
-42.1943680753
 20
78.3490810576
 10
-42.647620459
 20
78.6649543575
 10
-43.1408694802
 20
78.8386213043
 10
-43.6206639538
 20
78.8512623896
 10
-44.035010704
 20
78.7015077557
 10
-44.3390088311
 20
78.4055856409
 10
-44.4997154209
 20
77.9955637979
 10
-44.4997154209
 20
77.5158744557
 10
-44.3390088311
 20
77.0184993975
 10
-44.035010704
 20
76.5573369286
 10
-43.6206639538
 20
76.1823611581
 10
-43.1408694802
 20
75.934206529
 10
-42.647620459
 20
75.839764446
 10
-42.1943680753
 20
75.9092691742
 10
-41.8302292578
 20
76.1351887977
 10
-41.5946640976
 20
76.49304142
 10
-41.513199735
 20
76.9440481566
  0
LWPOLYLINE
  5
169
330
15D
100
AcDbEntity
  8
0
  6
Continuous
 62
     7
370
    15
100
AcDbPolyline
 90
       20
 70
   128
 43
0.0
 10
36.8462458457
 20
55.6476298877
 10
36.9277102083
 20
55.1523426146
 10
37.1632753685
 20
54.6664468664
 10
37.527414186
 20
54.2425969867
 10
37.9806665697
 20
53.9267236868
 10
38.4739155909
 20
53.75305674
 10
38.9537100645
 20
53.7404156547
 10
39.3680568147
 20
53.8901702886
 10
39.6720549418
 20
54.1860924034
 10
39.8327615316
 20
54.5961142464
 10
39.8327615316
 20
55.0758035886
 10
39.6720549418
 20
55.5731786468
 10
39.3680568147
 20
56.0343411157
 10
38.9537100645
 20
56.4093168862
 10
38.4739155909
 20
56.6574715153
 10
37.9806665697
 20
56.7519135983
 10
37.527414186
 20
56.6824088701
 10
37.1632753685
 20
56.4564892466
 10
36.9277102083
 20
56.0986366243
 10
36.8462458457
 20
55.6476298877
  0
LWPOLYLINE
  5
16E
330
15D
100
AcDbEntity
  8
0
  6
Continuous
 62
     7
370
    15
100
AcDbPolyline
 90
       20
 70
   128
 43
0.0
 10
-68.8224586026
 20
-50.442650484
 10
-68.9039229653
 20
-49.947363211
 10
-69.1394881255
 20
-49.4614674628
 10
-69.503626943
 20
-49.0376175831
 10
-69.9568793267
 20
-48.7217442832
 10
-70.4501283478
 20
-48.5480773364
 10
-70.9299228215
 20
-48.5354362511
 10
-71.3442695717
 20
-48.6851908849
 10
-71.6482676988
 20
-48.9811129998
 10
-71.8089742886
 20
-49.3911348428
 10
-71.8089742886
 20
-49.870824185
 10
-71.6482676988
 20
-50.3681992432
 10
-71.3442695717
 20
-50.8293617121
 10
-70.9299228215
 20
-51.2043374826
 10
-70.4501283478
 20
-51.4524921117
 10
-69.9568793267
 20
-51.5469341947
 10
-69.503626943
 20
-51.4774294665
 10
-69.1394881255
 20
-51.2515098429
 10
-68.9039229653
 20
-50.8936572207
 10
-68.8224586026
 20
-50.442650484
  0
LWPOLYLINE
  5
16F
330
15D
100
AcDbEntity
  8
0
  6
Continuous
 62
     7
370
    15
100
AcDbPolyline
 90
       20
 70
   128
 43
0.0
 10
64.1555047133
 20
-86.5832115402
 10
64.236969076
 20
-87.0784988133
 10
64.4725342362
 20
-87.5643945615
 10
64.8366730537
 20
-87.9882444412
 10
65.2899254374
 20
-88.3041177411
 10
65.7831744585
 20
-88.4777846879
 10
66.2629689322
 20
-88.4904257732
 10
66.6773156824
 20
-88.3406711393
 10
66.9813138095
 20
-88.0447490245
 10
67.1420203993
 20
-87.6347271815
 10
67.1420203993
 20
-87.1550378393
 10
66.9813138095
 20
-86.6576627811
 10
66.6773156824
 20
-86.1965003122
 10
66.2629689322
 20
-85.8215245417
 10
65.7831744585
 20
-85.5733699126
 10
65.2899254374
 20
-85.4789278296
 10
64.8366730537
 20
-85.5484325578
 10
64.4725342362
 20
-85.7743521813
 10
64.236969076
 20
-86.1322048036
 10
64.1555047133
 20
-86.5832115402
  0
LWPOLYLINE
  5
170
330
15D
100
AcDbEntity
  8
0
  6
Continuous
 62
     7
370
    15
100
AcDbPolyline
 90
       20
 70
   128
 43
0.0
 10
-41.2920952045
 20
60.8120697948
 10
-41.3735595672
 20
61.3073570679
 10
-41.6091247274
 20
61.7932528161
 10
-41.9732635449
 20
62.2171026957
 10
-42.4265159286
 20
62.5329759956
 10
-42.9197649497
 20
62.7066429425
 10
-43.3995594234
 20
62.7192840278
 10
-43.8139061736
 20
62.5695293939
 10
-44.1179043007
 20
62.2736072791
 10
-44.2786108905
 20
61.8635854361
 10
-44.2786108905
 20
61.3838960938
 10
-44.1179043007
 20
60.8865210357
 10
-43.8139061736
 20
60.4253585668
 10
-43.3995594234
 20
60.0503827962
 10
-42.9197649497
 20
59.8022281672
 10
-42.4265159286
 20
59.7077860842
 10
-41.9732635449
 20
59.7772908123
 10
-41.6091247274
 20
60.0032104359
 10
-41.3735595672
 20
60.3610630582
 10
-41.2920952045
 20
60.8120697948
  0
LWPOLYLINE
  5
171
330
15D
100
AcDbEntity
  8
0
  6
Continuous
 62
     7
370
    15
100
AcDbPolyline
 90
       20
 70
   128
 43
0.0
 10
-44.2991168182
 20
-3.943984667
 10
-44.2176524556
 20
-4.43927194
 10
-43.9820872954
 20
-4.9251676883
 10
-43.6179484779
 20
-5.3490175679
 10
-43.1646960942
 20
-5.6648908678
 10
-42.6714470731
 20
-5.8385578146
 10
-42.1916525994
 20
-5.8511989
 10
-41.7773058492
 20
-5.7014442661
 10
-41.4733077221
 20
-5.4055221512
 10
-41.3126011323
 20
-4.9955003083
 10
-41.3126011323
 20
-4.515810966
 10
-41.4733077221
 20
-4.0184359079
 10
-41.7773058492
 20
-3.5572734389
 10
-42.1916525994
 20
-3.1822976684
 10
-42.6714470731
 20
-2.9341430393
 10
-43.1646960942
 20
-2.8397009563
 10
-43.6179484779
 20
-2.9092056845
 10
-43.9820872954
 20
-3.1351253081
 10
-44.2176524556
 20
-3.4929779303
 10
-44.2991168182
 20
-3.943984667
  0
LWPOLYLINE
  5
172
330
15D
100
AcDbEntity
  8
0
  6
Continuous
 62
     7
370
    15
100
AcDbPolyline
 90
       20
 70
   128
 43
0.0
 10
39.6321629289
 20
-26.7547080725
 10
39.5506985663
 20
-26.2594207994
 10
39.3151334061
 20
-25.7735250512
 10
38.9509945886
 20
-25.3496751716
 10
38.4977422049
 20
-25.0338018717
 10
38.0044931838
 20
-24.8601349248
 10
37.5246987101
 20
-24.8474938395
 10
37.1103519599
 20
-24.9972484734
 10
36.8063538328
 20
-25.2931705882
 10
36.645647243
 20
-25.7031924312
 10
36.645647243
 20
-26.1828817734
 10
36.8063538328
 20
-26.6802568316
 10
37.1103519599
 20
-27.1414193005
 10
37.5246987101
 20
-27.5163950711
 10
38.0044931838
 20
-27.7645497001
 10
38.4977422049
 20
-27.8589917831
 10
38.9509945886
 20
-27.789487055
 10
39.3151334061
 20
-27.5635674314
 10
39.5506985663
 20
-27.2057148091
 10
39.6321629289
 20
-26.7547080725
  0
LWPOLYLINE
  5
173
330
15D
100
AcDbEntity
  8
0
  6
Continuous
 62
     7
370
    15
100
AcDbPolyline
 90
       20
 70
   128
 43
0.0
 10
36.6251413152
 20
39.6358344732
 10
36.7066056779
 20
39.1405472001
 10
36.9421708381
 20
38.6546514519
 10
37.3063096556
 20
38.2308015722
 10
37.7595620393
 20
37.9149282723
 10
38.2528110604
 20
37.7412613255
 10
38.7326055341
 20
37.7286202402
 10
39.1469522843
 20
37.8783748741
 10
39.4509504114
 20
38.1742969889
 10
39.6116570012
 20
38.5843188319
 10
39.6116570012
 20
39.0640081741
 10
39.4509504114
 20
39.5613832323
 10
39.1469522843
 20
40.0225457012
 10
38.7326055341
 20
40.3975214718
 10
38.2528110604
 20
40.6456761008
 10
37.7595620393
 20
40.7401181838
 10
37.3063096556
 20
40.6706134556
 10
36.9421708381
 20
40.4446938321
 10
36.7066056779
 20
40.0868412098
 10
36.6251413152
 20
39.6358344732
  0
LWPOLYLINE
  5
174
330
15D
100
AcDbEntity
  8
0
  6
Continuous
 62
     7
370
    15
100
AcDbPolyline
 90
       20
 70
   128
 43
0.0
 10
-53.8950534384
 20
-13.979232395
 10
-53.9765178011
 20
-13.483945122
 10
-54.2120829613
 20
-12.9980493737
 10
-54.5762217788
 20
-12.5741994941
 10
-55.0294741625
 20
-12.2583261942
 10
-55.5227231836
 20
-12.0846592474
 10
-56.0025176573
 20
-12.072018162
 10
-56.4168644075
 20
-12.2217727959
 10
-56.7208625346
 20
-12.5176949108
 10
-56.8815691244
 20
-12.9277167537
 10
-56.8815691244
 20
-13.407406096
 10
-56.7208625346
 20
-13.9047811541
 10
-56.4168644075
 20
-14.3659436231
 10
-56.0025176573
 20
-14.7409193936
 10
-55.5227231836
 20
-14.9890740227
 10
-55.0294741625
 20
-15.0835161057
 10
-54.5762217788
 20
-15.0140113775
 10
-54.2120829613
 20
-14.7880917539
 10
-53.9765178011
 20
-14.4302391317
 10
-53.8950534384
 20
-13.979232395
  0
LWPOLYLINE
  5
175
330
15D
100
AcDbEntity
  8
0
  6
Continuous
 62
     7
370
    15
100
AcDbPolyline
 90
       20
 70
   128
 43
0.0
 10
49.2280995491
 20
-42.0058957152
 10
49.3095639118
 20
-42.5011829882
 10
49.545129072
 20
-42.9870787364
 10
49.9092678895
 20
-43.4109286161
 10
50.3625202732
 20
-43.726801916
 10
50.8557692943
 20
-43.9004688628
 10
51.335563768
 20
-43.9131099481
 10
51.7499105182
 20
-43.7633553143
 10
52.0539086453
 20
-43.4674331994
 10
52.2146152351
 20
-43.0574113564
 10
52.2146152351
 20
-42.5777220142
 10
52.0539086453
 20
-42.080346956
 10
51.7499105182
 20
-41.6191844871
 10
51.335563768
 20
-41.2442087166
 10
50.8557692943
 20
-40.9960540875
 10
50.3625202732
 20
-40.9016120045
 10
49.9092678895
 20
-40.9711167327
 10
49.545129072
 20
-41.1970363563
 10
49.3095639118
 20
-41.5548889785
 10
49.2280995491
 20
-42.0058957152
  0
LWPOLYLINE
  5
176
330
15D
100
AcDbEntity
  8
0
  6
Continuous
 62
     7
370
    15
100
AcDbPolyline
 90
       20
 70
   128
 43
0.0
 10
49.2280995491
 20
-76.2925877432
 10
49.3095639118
 20
-76.7878750163
 10
49.545129072
 20
-77.2737707645
 10
49.9092678895
 20
-77.6976206442
 10
50.3625202732
 20
-78.0134939441
 10
50.8557692943
 20
-78.1871608909
 10
51.335563768
 20
-78.1998019762
 10
51.7499105182
 20
-78.0500473423
 10
52.0539086453
 20
-77.7541252275
 10
52.2146152351
 20
-77.3441033845
 10
52.2146152351
 20
-76.8644140423
 10
52.0539086453
 20
-76.3670389841
 10
51.7499105182
 20
-75.9058765152
 10
51.335563768
 20
-75.5309007447
 10
50.8557692943
 20
-75.2827461156
 10
50.3625202732
 20
-75.1883040326
 10
49.9092678895
 20
-75.2578087608
 10
49.545129072
 20
-75.4837283843
 10
49.3095639118
 20
-75.8415810066
 10
49.2280995491
 20
-76.2925877432
  0
LWPOLYLINE
  5
177
330
15D
100
AcDbEntity
  8
0
  6
Continuous
 62
     7
370
    15
100
AcDbPolyline
 90
       20
 70
   128
 43
0.0
 10
-53.8950534384
 20
-48.2659244231
 10
-53.9765178011
 20
-47.7706371501
 10
-54.2120829613
 20
-47.2847414018
 10
-54.5762217788
 20
-46.8608915222
 10
-55.0294741625
 20
-46.5450182223
 10
-55.5227231836
 20
-46.3713512755
 10
-56.0025176573
 20
-46.3587101901
 10
-56.4168644075
 20
-46.508464824
 10
-56.7208625346
 20
-46.8043869389
 10
-56.8815691244
 20
-47.2144087818
 10
-56.8815691244
 20
-47.6940981241
 10
-56.7208625346
 20
-48.1914731822
 10
-56.4168644075
 20
-48.6526356512
 10
-56.0025176573
 20
-49.0276114217
 10
-55.5227231836
 20
-49.2757660507
 10
-55.0294741625
 20
-49.3702081337
 10
-54.5762217788
 20
-49.3007034056
 10
-54.2120829613
 20
-49.074783782
 10
-53.9765178011
 20
-48.7169311597
 10
-53.8950534384
 20
-48.2659244231
  0
LINE
  5
17A
330
15D
100
AcDbEntity
  8
0
  6
Continuous
 62
     7
370
    15
100
AcDbLine
 10
77.2641540063
 20
53.2345815076
 30
0.0
 11
79.597630951
 21
55.5121265416
 31
0.0
  0
LINE
  5
17B
330
15D
100
AcDbEntity
  8
0
  6
Continuous
 62
     7
370
    15
100
AcDbLine
 10
79.597630951
 20
-85.5303184216
 30
0.0
 11
79.597630951
 21
55.5121265416
 31
0.0
  0
LINE
  5
17C
330
15D
100
AcDbEntity
  8
0
  6
Continuous
 62
     7
370
    15
100
AcDbLine
 10
79.597630951
 20
-85.5303184216
 30
0.0
 11
77.2641540063
 21
-87.8078634556
 31
0.0
  0
LINE
  5
17D
330
15D
100
AcDbEntity
  8
0
  6
Continuous
 62
     7
370
    15
100
AcDbLine
 10
77.2641540063
 20
-87.8078634556
 30
0.0
 11
77.2641540063
 21
53.2345815076
 31
0.0
  0
LINE
  5
17E
330
15D
100
AcDbEntity
  8
0
  6
Continuous
 62
     7
370
    15
100
AcDbLine
 10
77.2641540063
 20
53.2345815076
 30
0.0
 11
-81.9311078956
 21
96.5004425507
 31
0.0
  0
LINE
  5
17F
330
15D
100
AcDbEntity
  8
0
  6
Continuous
 62
     7
370
    15
100
AcDbLine
 10
-81.9311078956
 20
96.5004425507
 30
0.0
 11
-79.597630951
 21
98.7779875847
 31
0.0
  0
LINE
  5
180
330
15D
100
AcDbEntity
  8
0
  6
Continuous
 62
     7
370
    15
100
AcDbLine
 10
79.597630951
 20
55.5121265416
 30
0.0
 11
-79.597630951
 21
98.7779875847
 31
0.0
  0
LINE
  5
181
330
15D
100
AcDbEntity
  8
0
  6
Continuous
 62
     7
370
    15
100
AcDbLine
 10
-74.0394021422
 20
-59.9344681006
 30
0.0
 11
69.3724482529
 21
-98.9107360938
 31
0.0
  0
LINE
  5
182
330
15D
100
AcDbEntity
  8
0
  6
Continuous
 62
     7
370
    15
100
AcDbLine
 10
-74.0394021422
 20
-59.9344681006
 30
0.0
 11
-81.9311078956
 21
-44.5420024125
 31
0.0
  0
LINE
  5
183
330
15D
100
AcDbEntity
  8
0
  6
Continuous
 62
     7
370
    15
100
AcDbLine
 10
-81.9311078956
 20
96.5004425507
 30
0.0
 11
-81.9311078956
 21
-44.5420024125
 31
0.0
  0
LINE
  5
184
330
15D
100
AcDbEntity
  8
0
  6
Continuous
 62
     7
370
    15
100
AcDbLine
 10
77.2641540063
 20
-87.8078634556
 30
0.0
 11
69.3724482529
 21
-98.9107360938
 31
0.0
  0
LINE
  5
185
330
15D
100
AcDbEntity
  8
0
  6
Continuous
 62
     7
370
    15
100
AcDbLine
 10
71.7059251975
 20
-96.6331910598
 30
0.0
 11
69.3724482529
 21
-98.9107360938
 31
0.0
  0
LINE
  5
186
330
15D
100
AcDbEntity
  8
0
  6
Continuous
 62
     7
370
    15
100
AcDbLine
 10
79.597630951
 20
-85.5303184216
 30
0.0
 11
71.7059251975
 21
-96.6331910598
 31
0.0
  0
VIEWPORT
  5
1DB
330
15D
100
AcDbEntity
  8
0
100
AcDbViewport
 10
0.0
 20
0.0
 30
0.0
 40
205.6
 41
156.0
 68
     1
 69
     1
 12
0.0
 22
0.0
 13
0.0
 23
0.0
 14
10.0
 24
10.0
 15
10.0
 25
10.0
 16
0.0
 26
0.0
 36
1.0
 17
0.0
 27
0.0
 37
0.0
 42
50.0
 43
0.0
 44
0.0
 45
183.6
 50
0.0
 51
0.0
 72
   100
 90
   557152
  1

281
     0
 71
     1
 74
     0
110
0.0
120
0.0
130
0.0
111
1.0
121
0.0
131
0.0
112
0.0
122
1.0
132
0.0
 79
     0
146
0.0
  0
ENDBLK
  5
160
330
15D
100
AcDbEntity
  8
0
100
AcDbBlockEnd
  0
BLOCK
  5
189
330
187
100
AcDbEntity
  8
0
100
AcDbBlockBegin
  2
*Paper_Space9
 70
     0
 10
0.0
 20
0.0
 30
0.0
  3
*Paper_Space9
  1

  0
LWPOLYLINE
  5
192
330
187
100
AcDbEntity
  8
0
  6
Continuous
 62
     7
370
    15
100
AcDbPolyline
 90
       20
 70
   128
 43
0.0
 10
-43.2066225124
 20
79.0865044833
 10
-43.2927841725
 20
79.6177801442
 10
-43.5419322
 20
80.1131945413
 10
-43.92706754
 20
80.5190618375
 10
-44.4064548027
 20
80.7914000136
 10
-44.9281449395
 20
80.9006970024
 10
-45.4356047294
 20
80.8351087793
 10
-45.87384303
 20
80.6017428459
 10
-46.1953699214
 20
80.2258880222
 10
-46.3653429761
 20
79.7482740104
 10
-46.3653429761
 20
79.2206576994
 10
-46.1953699214
 20
78.7002145036
 10
-45.87384303
 20
78.2433425185
 10
-45.4356047294
 20
77.899550913
 10
-44.9281449395
 20
77.7060948419
 10
-44.4064548027
 20
77.6839382723
 10
-43.92706754
 20
77.8354822124
 10
-43.5419322
 20
78.1443045248
 10
-43.2927841725
 20
78.57693952
 10
-43.2066225124
 20
79.0865044833
  0
LWPOLYLINE
  5
193
330
187
100
AcDbEntity
  8
0
  6
Continuous
 62
     7
370
    15
100
AcDbPolyline
 90
       20
 70
   128
 43
0.0
 10
39.6710886073
 20
68.6448943527
 10
39.7572502674
 20
68.1136186917
 10
40.0063982948
 20
67.6182042946
 10
40.3915336349
 20
67.2123369984
 10
40.8709208976
 20
66.9399988223
 10
41.3926110344
 20
66.8307018335
 10
41.9000708242
 20
66.8962900567
 10
42.3383091248
 20
67.12965599
 10
42.6598360163
 20
67.5055108137
 10
42.829809071
 20
67.9831248256
 10
42.829809071
 20
68.5107411365
 10
42.6598360163
 20
69.0311843324
 10
42.3383091248
 20
69.4880563174
 10
41.9000708242
 20
69.8318479229
 10
41.3926110344
 20
70.025303994
 10
40.8709208976
 20
70.0474605636
 10
40.3915336349
 20
69.8959166235
 10
40.0063982948
 20
69.5870943112
 10
39.7572502674
 20
69.154459316
 10
39.6710886073
 20
68.6448943527
  0
LWPOLYLINE
  5
198
330
187
100
AcDbEntity
  8
0
  6
Continuous
 62
     7
370
    15
100
AcDbPolyline
 90
       20
 70
   128
 43
0.0
 10
-72.0905541248
 20
-65.5523154996
 10
-72.1767157849
 20
-65.0210398387
 10
-72.4258638123
 20
-64.5256254416
 10
-72.8109991524
 20
-64.1197581454
 10
-73.290386415
 20
-63.8474199693
 10
-73.8120765518
 20
-63.7381229805
 10
-74.3195363417
 20
-63.8037112036
 10
-74.7577746423
 20
-64.037077137
 10
-75.0793015338
 20
-64.4129319607
 10
-75.2492745884
 20
-64.8905459726
 10
-75.2492745884
 20
-65.4181622835
 10
-75.0793015338
 20
-65.9386054793
 10
-74.7577746423
 20
-66.3954774644
 10
-74.3195363417
 20
-66.7392690699
 10
-73.8120765518
 20
-66.932725141
 10
-73.290386415
 20
-66.9548817106
 10
-72.8109991524
 20
-66.8033377705
 10
-72.4258638123
 20
-66.4945154582
 10
-72.1767157849
 20
-66.061880463
 10
-72.0905541248
 20
-65.5523154996
  0
LWPOLYLINE
  5
199
330
187
100
AcDbEntity
  8
0
  6
Continuous
 62
     7
370
    15
100
AcDbPolyline
 90
       20
 70
   128
 43
0.0
 10
68.5550202197
 20
-83.2719922868
 10
68.6411818797
 20
-83.8032679478
 10
68.8903299072
 20
-84.2986823449
 10
69.2754652472
 20
-84.7045496411
 10
69.7548525099
 20
-84.9768878171
 10
70.2765426467
 20
-85.0861848059
 10
70.7840024366
 20
-85.0205965828
 10
71.2222407372
 20
-84.7872306494
 10
71.5437676286
 20
-84.4113758258
 10
71.7137406833
 20
-83.9337618139
 10
71.7137406833
 20
-83.406145503
 10
71.5437676286
 20
-82.8857023071
 10
71.2222407372
 20
-82.4288303221
 10
70.7840024366
 20
-82.0850387165
 10
70.2765426467
 20
-81.8915826454
 10
69.7548525099
 20
-81.8694260759
 10
69.2754652472
 20
-82.0209700159
 10
68.8903299072
 20
-82.3297923283
 10
68.6411818797
 20
-82.7624273235
 10
68.5550202197
 20
-83.2719922868
  0
LWPOLYLINE
  5
19A
330
187
100
AcDbEntity
  8
0
  6
Continuous
 62
     7
370
    15
100
AcDbPolyline
 90
       20
 70
   128
 43
0.0
 10
-42.9727689258
 20
61.3793721706
 10
-43.0589305858
 20
61.9106478315
 10
-43.3080786133
 20
62.4060622286
 10
-43.6932139534
 20
62.8119295248
 10
-44.172601216
 20
63.0842677009
 10
-44.6942913528
 20
63.1935646897
 10
-45.2017511427
 20
63.1279764666
 10
-45.6399894433
 20
62.8946105332
 10
-45.9615163347
 20
62.5187557095
 10
-46.1314893894
 20
62.0411416976
 10
-46.1314893894
 20
61.5135253867
 10
-45.9615163347
 20
60.9930821909
 10
-45.6399894433
 20
60.5362102058
 10
-45.2017511427
 20
60.1924186003
 10
-44.6942913528
 20
59.9989625292
 10
-44.172601216
 20
59.9768059596
 10
-43.6932139534
 20
60.1283498997
 10
-43.3080786133
 20
60.437172212
 10
-43.0589305858
 20
60.8698072072
 10
-42.9727689258
 20
61.3793721706
  0
LWPOLYLINE
  5
19B
330
187
100
AcDbEntity
  8
0
  6
Continuous
 62
     7
370
    15
100
AcDbPolyline
 90
       20
 70
   128
 43
0.0
 10
-46.1531777046
 20
-10.3448256701
 10
-46.0670160445
 20
-10.8761013311
 10
-45.8178680171
 20
-11.3715157282
 10
-45.432732677
 20
-11.7773830244
 10
-44.9533454144
 20
-12.0497212004
 10
-44.4316552775
 20
-12.1590181892
 10
-43.9241954877
 20
-12.0934299661
 10
-43.4859571871
 20
-11.8600640327
 10
-43.1644302956
 20
-11.4842092091
 10
-42.994457241
 20
-11.0065951972
 10
-42.994457241
 20
-10.4789788863
 10
-43.1644302956
 20
-9.9585356904
 10
-43.4859571871
 20
-9.5016637054
 10
-43.9241954877
 20
-9.1578720998
 10
-44.4316552775
 20
-8.9644160287
 10
-44.9533454144
 20
-8.9422594592
 10
-45.432732677
 20
-9.0938033992
 10
-45.8178680171
 20
-9.4026257116
 10
-46.0670160445
 20
-9.8352607068
 10
-46.1531777046
 20
-10.3448256701
  0
LWPOLYLINE
  5
19C
330
187
100
AcDbEntity
  8
0
  6
Continuous
 62
     7
370
    15
100
AcDbPolyline
 90
       20
 70
   128
 43
0.0
 10
42.6176437995
 20
-21.5288979207
 10
42.5314821394
 20
-20.9976222597
 10
42.282334112
 20
-20.5022078626
 10
41.8971987719
 20
-20.0963405664
 10
41.4178115093
 20
-19.8240023903
 10
40.8961213724
 20
-19.7147054015
 10
40.3886615826
 20
-19.7802936247
 10
39.950423282
 20
-20.013659558
 10
39.6288963905
 20
-20.3895143817
 10
39.4589233358
 20
-20.8671283936
 10
39.4589233358
 20
-21.3947447045
 10
39.6288963905
 20
-21.9151879004
 10
39.950423282
 20
-22.3720598854
 10
40.3886615826
 20
-22.715851491
 10
40.8961213724
 20
-22.909307562
 10
41.4178115093
 20
-22.9314641316
 10
41.8971987719
 20
-22.7799201915
 10
42.282334112
 20
-22.4710978792
 10
42.5314821394
 20
-22.038462884
 10
42.6176437995
 20
-21.5288979207
  0
LWPOLYLINE
  5
19D
330
187
100
AcDbEntity
  8
0
  6
Continuous
 62
     7
370
    15
100
AcDbPolyline
 90
       20
 70
   128
 43
0.0
 10
39.4372350206
 20
50.996687605
 10
39.5233966807
 20
50.4654119441
 10
39.7725447081
 20
49.9699975469
 10
40.1576800482
 20
49.5641302507
 10
40.6370673109
 20
49.2917920747
 10
41.1587574477
 20
49.1824950859
 10
41.6662172376
 20
49.248083309
 10
42.1044555381
 20
49.4814492424
 10
42.4259824296
 20
49.8573040661
 10
42.5959554843
 20
50.3349180779
 10
42.5959554843
 20
50.8625343888
 10
42.4259824296
 20
51.3829775847
 10
42.1044555381
 20
51.8398495698
 10
41.6662172376
 20
52.1836411753
 10
41.1587574477
 20
52.3770972464
 10
40.6370673109
 20
52.3992538159
 10
40.1576800482
 20
52.2477098759
 10
39.7725447081
 20
51.9388875635
 10
39.5233966807
 20
51.5062525683
 10
39.4372350206
 20
50.996687605
  0
LWPOLYLINE
  5
19E
330
187
100
AcDbEntity
  8
0
  6
Continuous
 62
     7
370
    15
100
AcDbPolyline
 90
       20
 70
   128
 43
0.0
 10
-56.3024233666
 20
-22.9725742718
 10
-56.3885850267
 20
-22.4412986109
 10
-56.6377330541
 20
-21.9458842138
 10
-57.0228683942
 20
-21.5400169176
 10
-57.5022556568
 20
-21.2676787415
 10
-58.0239457937
 20
-21.1583817527
 10
-58.5314055835
 20
-21.2239699758
 10
-58.9696438841
 20
-21.4573359092
 10
-59.2911707756
 20
-21.8331907329
 10
-59.4611438302
 20
-22.3108047448
 10
-59.4611438302
 20
-22.8384210557
 10
-59.2911707756
 20
-23.3588642515
 10
-58.9696438841
 20
-23.8157362366
 10
-58.5314055835
 20
-24.1595278421
 10
-58.0239457937
 20
-24.3529839132
 10
-57.5022556568
 20
-24.3751404828
 10
-57.0228683942
 20
-24.2235965427
 10
-56.6377330541
 20
-23.9147742304
 10
-56.3885850267
 20
-23.4821392351
 10
-56.3024233666
 20
-22.9725742718
  0
LWPOLYLINE
  5
19F
330
187
100
AcDbEntity
  8
0
  6
Continuous
 62
     7
370
    15
100
AcDbPolyline
 90
       20
 70
   128
 43
0.0
 10
52.7668894615
 20
-36.7140160465
 10
52.8530511215
 20
-37.2452917074
 10
53.102199149
 20
-37.7407061045
 10
53.4873344891
 20
-38.1465734007
 10
53.9667217517
 20
-38.4189115768
 10
54.4884118885
 20
-38.5282085656
 10
54.9958716784
 20
-38.4626203424
 10
55.434109979
 20
-38.2292544091
 10
55.7556368704
 20
-37.8533995854
 10
55.9256099251
 20
-37.3757855735
 10
55.9256099251
 20
-36.8481692626
 10
55.7556368704
 20
-36.3277260667
 10
55.434109979
 20
-35.8708540817
 10
54.9958716784
 20
-35.5270624762
 10
54.4884118885
 20
-35.3336064051
 10
53.9667217517
 20
-35.3114498355
 10
53.4873344891
 20
-35.4629937756
 10
53.102199149
 20
-35.7718160879
 10
52.8530511215
 20
-36.2044510831
 10
52.7668894615
 20
-36.7140160465
  0
LWPOLYLINE
  5
1A0
330
187
100
AcDbEntity
  8
0
  6
Continuous
 62
     7
370
    15
100
AcDbPolyline
 90
       20
 70
   128
 43
0.0
 10
52.7668894615
 20
-74.4263777109
 10
52.8530511215
 20
-74.9576533718
 10
53.102199149
 20
-75.4530677689
 10
53.4873344891
 20
-75.8589350651
 10
53.9667217517
 20
-76.1312732412
 10
54.4884118885
 20
-76.24057023
 10
54.9958716784
 20
-76.1749820069
 10
55.434109979
 20
-75.9416160735
 10
55.7556368704
 20
-75.5657612498
 10
55.9256099251
 20
-75.0881472379
 10
55.9256099251
 20
-74.560530927
 10
55.7556368704
 20
-74.0400877311
 10
55.434109979
 20
-73.5832157461
 10
54.9958716784
 20
-73.2394241406
 10
54.4884118885
 20
-73.0459680695
 10
53.9667217517
 20
-73.0238114999
 10
53.4873344891
 20
-73.17535544
 10
53.102199149
 20
-73.4841777523
 10
52.8530511215
 20
-73.9168127475
 10
52.7668894615
 20
-74.4263777109
  0
LWPOLYLINE
  5
1A1
330
187
100
AcDbEntity
  8
0
  6
Continuous
 62
     7
370
    15
100
AcDbPolyline
 90
       20
 70
   128
 43
0.0
 10
-56.3024233666
 20
-60.6849359362
 10
-56.3885850267
 20
-60.1536602753
 10
-56.6377330541
 20
-59.6582458782
 10
-57.0228683942
 20
-59.252378582
 10
-57.5022556568
 20
-58.9800404059
 10
-58.0239457937
 20
-58.8707434171
 10
-58.5314055835
 20
-58.9363316402
 10
-58.9696438841
 20
-59.1696975736
 10
-59.2911707756
 20
-59.5455523973
 10
-59.4611438302
 20
-60.0231664092
 10
-59.4611438302
 20
-60.5507827201
 10
-59.2911707756
 20
-61.0712259159
 10
-58.9696438841
 20
-61.528097901
 10
-58.5314055835
 20
-61.8718895065
 10
-58.0239457937
 20
-62.0653455776
 10
-57.5022556568
 20
-62.0875021472
 10
-57.0228683942
 20
-61.9359582071
 10
-56.6377330541
 20
-61.6271358948
 10
-56.3885850267
 20
-61.1945008995
 10
-56.3024233666
 20
-60.6849359362
  0
LINE
  5
1B0
330
187
100
AcDbEntity
  8
0
  6
Continuous
 62
     7
370
    15
100
AcDbLine
 10
82.4195242526
 20
72.6871881212
 30
0.0
 11
84.1872912052
 21
74.2462120321
 31
0.0
  0
LINE
  5
1B1
330
187
100
AcDbEntity
  8
0
  6
Continuous
 62
     7
370
    15
100
AcDbLine
 10
84.1872912052
 20
-80.8881383488
 30
0.0
 11
84.1872912052
 21
74.2462120321
 31
0.0
  0
LINE
  5
1B2
330
187
100
AcDbEntity
  8
0
  6
Continuous
 62
     7
370
    15
100
AcDbLine
 10
84.1872912052
 20
-80.8881383488
 30
0.0
 11
82.4195242526
 21
-82.4471622596
 31
0.0
  0
LINE
  5
1B3
330
187
100
AcDbEntity
  8
0
  6
Continuous
 62
     7
370
    15
100
AcDbLine
 10
82.4195242526
 20
-82.4471622596
 30
0.0
 11
82.4195242526
 21
72.6871881212
 31
0.0
  0
LINE
  5
1B4
330
187
100
AcDbEntity
  8
0
  6
Continuous
 62
     7
370
    15
100
AcDbLine
 10
82.4195242526
 20
72.6871881212
 30
0.0
 11
-85.9550581577
 21
93.9003915469
 31
0.0
  0
LINE
  5
1B5
330
187
100
AcDbEntity
  8
0
  6
Continuous
 62
     7
370
    15
100
AcDbLine
 10
-85.9550581577
 20
93.9003915469
 30
0.0
 11
-84.1872912052
 21
95.4594154578
 31
0.0
  0
LINE
  5
1B6
330
187
100
AcDbEntity
  8
0
  6
Continuous
 62
     7
370
    15
100
AcDbLine
 10
84.1872912052
 20
74.2462120321
 30
0.0
 11
-84.1872912052
 21
95.4594154578
 31
0.0
  0
LINE
  5
1B7
330
187
100
AcDbEntity
  8
0
  6
Continuous
 62
     7
370
    15
100
AcDbLine
 10
-77.6083106172
 20
-76.8568272875
 30
0.0
 11
74.0727767121
 21
-95.9668480239
 31
0.0
  0
LINE
  5
1B8
330
187
100
AcDbEntity
  8
0
  6
Continuous
 62
     7
370
    15
100
AcDbLine
 10
-77.6083106172
 20
-76.8568272875
 30
0.0
 11
-85.9550581577
 21
-61.233958834
 31
0.0
  0
LINE
  5
1B9
330
187
100
AcDbEntity
  8
0
  6
Continuous
 62
     7
370
    15
100
AcDbLine
 10
-85.9550581577
 20
93.9003915469
 30
0.0
 11
-85.9550581577
 21
-61.233958834
 31
0.0
  0
LINE
  5
1BA
330
187
100
AcDbEntity
  8
0
  6
Continuous
 62
     7
370
    15
100
AcDbLine
 10
82.4195242526
 20
-82.4471622596
 30
0.0
 11
74.0727767121
 21
-95.9668480239
 31
0.0
  0
LINE
  5
1BB
330
187
100
AcDbEntity
  8
0
  6
Continuous
 62
     7
370
    15
100
AcDbLine
 10
75.8405436647
 20
-94.4078241131
 30
0.0
 11
74.0727767121
 21
-95.9668480239
 31
0.0
  0
LINE
  5
1BC
330
187
100
AcDbEntity
  8
0
  6
Continuous
 62
     7
370
    15
100
AcDbLine
 10
84.1872912052
 20
-80.8881383488
 30
0.0
 11
75.8405436647
 21
-94.4078241131
 31
0.0
  0
ARC
  5
1BD
330
187
100
AcDbEntity
  8
0
  6
Continuous
 62
     7
370
    15
100
AcDbCircle
 10
43.3018367095
 20
70.2441378326
 30
0.0
 40
1.866201664741864
100
AcDbArc
 50
187.1394696221
 51
255.6797745978
  0
ARC
  5
1BE
330
187
100
AcDbEntity
  8
0
  6
Continuous
 62
     7
370
    15
100
AcDbCircle
 10
43.0679831229
 20
52.5959310849
 30
0.0
 40
1.86620166474186
100
AcDbArc
 50
187.1394696221
 51
255.6797745978
  0
ARC
  5
1BF
330
187
100
AcDbEntity
  8
0
  6
Continuous
 62
     7
370
    15
100
AcDbCircle
 10
-42.755832138
 20
81.0868395954
 30
0.0
 40
1.866698688706097
100
AcDbArc
 50
187.1498639182
 51
255.6693803017
  0
ARC
  5
1C0
330
187
100
AcDbEntity
  8
0
  6
Continuous
 62
     7
370
    15
100
AcDbCircle
 10
43.068434174
 20
-19.5285628085
 30
0.0
 40
1.866698688706001
100
AcDbArc
 50
187.1498639182
 51
255.6693803017
  0
ARC
  5
1C1
330
187
100
AcDbEntity
  8
0
  6
Continuous
 62
     7
370
    15
100
AcDbCircle
 10
56.3976375637
 20
-35.1147725665
 30
0.0
 40
1.866201664741789
100
AcDbArc
 50
187.1394696221
 51
255.6797745978
  0
ARC
  5
1C2
330
187
100
AcDbEntity
  8
0
  6
Continuous
 62
     7
370
    15
100
AcDbCircle
 10
-42.5219785513
 20
63.3797072827
 30
0.0
 40
1.866698688706046
100
AcDbArc
 50
187.1498639182
 51
255.6693803017
  0
ARC
  5
1C3
330
187
100
AcDbEntity
  8
0
  6
Continuous
 62
     7
370
    15
100
AcDbCircle
 10
72.1857683219
 20
-81.6727488069
 30
0.0
 40
1.866201664741881
100
AcDbArc
 50
187.1394696221
 51
255.6797745978
  0
ARC
  5
1C4
330
187
100
AcDbEntity
  8
0
  6
Continuous
 62
     7
370
    15
100
AcDbCircle
 10
56.3976375637
 20
-72.8271342309
 30
0.0
 40
1.866201664741981
100
AcDbArc
 50
187.1394696221
 51
255.6797745978
  0
ARC
  5
1C5
330
187
100
AcDbEntity
  8
0
  6
Continuous
 62
     7
370
    15
100
AcDbCircle
 10
-42.5224296024
 20
-8.7455821902
 30
0.0
 40
1.86620166474178
100
AcDbArc
 50
187.1394696221
 51
255.6797745978
  0
ARC
  5
1C6
330
187
100
AcDbEntity
  8
0
  6
Continuous
 62
     7
370
    15
100
AcDbCircle
 10
-55.8516329921
 20
-20.9722391597
 30
0.0
 40
1.866698688706211
100
AcDbArc
 50
187.1498639182
 51
255.6693803017
  0
ARC
  5
1C7
330
187
100
AcDbEntity
  8
0
  6
Continuous
 62
     7
370
    15
100
AcDbCircle
 10
-55.8516329921
 20
-58.6846008241
 30
0.0
 40
1.866698688706261
100
AcDbArc
 50
187.1498639182
 51
255.6693803017
  0
ARC
  5
1C8
330
187
100
AcDbEntity
  8
0
  6
Continuous
 62
     7
370
    15
100
AcDbCircle
 10
-71.6397637503
 20
-63.5519803875
 30
0.0
 40
1.86669868870627
100
AcDbArc
 50
187.1498639182
 51
255.6693803017
  0
VIEWPORT
  5
1DD
330
187
100
AcDbEntity
  8
0
100
AcDbViewport
 10
0.0
 20
0.0
 30
0.0
 40
205.6
 41
156.0
 68
     1
 69
     1
 12
0.0
 22
0.0
 13
0.0
 23
0.0
 14
10.0
 24
10.0
 15
10.0
 25
10.0
 16
0.0
 26
0.0
 36
1.0
 17
0.0
 27
0.0
 37
0.0
 42
50.0
 43
0.0
 44
0.0
 45
183.6
 50
0.0
 51
0.0
 72
   100
 90
   557152
  1

281
     0
 71
     1
 74
     0
110
0.0
120
0.0
130
0.0
111
1.0
121
0.0
131
0.0
112
0.0
122
1.0
132
0.0
 79
     0
146
0.0
  0
ENDBLK
  5
18A
330
187
100
AcDbEntity
  8
0
100
AcDbBlockEnd
  0
ENDSEC
  0
SECTION
  2
ENTITIES
  0
CIRCLE
  5
73
330
1F
100
AcDbEntity
  8
0
  6
Continuous
 62
     7
370
    15
100
AcDbCircle
 10
-46.0
 20
80.0
 30
0.0
 40
1.699999999999996
  0
CIRCLE
  5
74
330
1F
100
AcDbEntity
  8
0
  6
Continuous
 62
     7
370
    15
100
AcDbCircle
 10
46.0
 20
80.0
 30
0.0
 40
1.699999999999996
  0
CIRCLE
  5
77
330
1F
100
AcDbEntity
  8
0
  6
Continuous
 62
     7
370
    15
100
AcDbCircle
 10
-76.8782217351
 20
-77.2724133595
 30
0.0
 40
1.699999999999989
  0
CIRCLE
  5
78
330
1F
100
AcDbEntity
  8
0
  6
Continuous
 62
     7
370
    15
100
AcDbCircle
 10
76.8782217351
 20
-77.2724133595
 30
0.0
 40
1.699999999999989
  0
CIRCLE
  5
79
330
1F
100
AcDbEntity
  8
0
  6
Continuous
 62
     7
370
    15
100
AcDbCircle
 10
-45.75
 20
61.25
 30
0.0
 40
1.699999999999989
  0
CIRCLE
  5
7A
330
1F
100
AcDbEntity
  8
0
  6
Continuous
 62
     7
370
    15
100
AcDbCircle
 10
-45.75
 20
-15.25
 30
0.0
 40
1.699999999999982
  0
CIRCLE
  5
7B
330
1F
100
AcDbEntity
  8
0
  6
Continuous
 62
     7
370
    15
100
AcDbCircle
 10
45.75
 20
-15.25
 30
0.0
 40
1.699999999999982
  0
CIRCLE
  5
7C
330
1F
100
AcDbEntity
  8
0
  6
Continuous
 62
     7
370
    15
100
AcDbCircle
 10
45.75
 20
61.25
 30
0.0
 40
1.699999999999989
  0
CIRCLE
  5
7D
330
1F
100
AcDbEntity
  8
0
  6
Continuous
 62
     7
370
    15
100
AcDbCircle
 10
-60.0
 20
-30.0
 30
0.0
 40
1.699999999999996
  0
CIRCLE
  5
7E
330
1F
100
AcDbEntity
  8
0
  6
Continuous
 62
     7
370
    15
100
AcDbCircle
 10
60.0
 20
-30.0
 30
0.0
 40
1.699999999999982
  0
CIRCLE
  5
7F
330
1F
100
AcDbEntity
  8
0
  6
Continuous
 62
     7
370
    15
100
AcDbCircle
 10
60.0
 20
-70.0
 30
0.0
 40
1.700000000000017
  0
CIRCLE
  5
80
330
1F
100
AcDbEntity
  8
0
  6
Continuous
 62
     7
370
    15
100
AcDbCircle
 10
-60.0
 20
-70.0
 30
0.0
 40
1.70000000000001
  0
LINE
  5
85
330
1F
100
AcDbEntity
  8
0
  6
Continuous
 62
     7
370
    15
100
AcDbLine
 10
-81.0769515459
 20
-90.0
 30
0.0
 11
-90.0
 21
-74.544826719
 31
0.0
  0
LINE
  5
86
330
1F
100
AcDbEntity
  8
0
  6
Continuous
 62
     7
370
    15
100
AcDbLine
 10
90.0
 20
-74.544826719
 30
0.0
 11
81.0769515459
 21
-90.0
 31
0.0
  0
LINE
  5
87
330
1F
100
AcDbEntity
  8
0
  6
Continuous
 62
     7
370
    15
100
AcDbLine
 10
90.0
 20
90.0
 30
0.0
 11
-90.0
 21
90.0
 31
0.0
  0
LINE
  5
88
330
1F
100
AcDbEntity
  8
0
  6
Continuous
 62
     7
370
    15
100
AcDbLine
 10
90.0
 20
-74.544826719
 30
0.0
 11
90.0
 21
90.0
 31
0.0
  0
LINE
  5
89
330
1F
100
AcDbEntity
  8
0
  6
Continuous
 62
     7
370
    15
100
AcDbLine
 10
-81.0769515459
 20
-90.0
 30
0.0
 11
81.0769515459
 21
-90.0
 31
0.0
  0
LINE
  5
8A
330
1F
100
AcDbEntity
  8
0
  6
Continuous
 62
     7
370
    15
100
AcDbLine
 10
-90.0
 20
90.0
 30
0.0
 11
-90.0
 21
-74.544826719
 31
0.0
  0
CIRCLE
  5
8B
330
1B
100
AcDbEntity
 67
     1
  8
0
  6
Continuous
 62
     7
370
    15
100
AcDbCircle
 10
-46.0
 20
80.0
 30
0.0
 40
1.699999999999996
  0
CIRCLE
  5
8C
330
1B
100
AcDbEntity
 67
     1
  8
0
  6
Continuous
 62
     7
370
    15
100
AcDbCircle
 10
46.0
 20
80.0
 30
0.0
 40
1.699999999999996
  0
CIRCLE
  5
8F
330
1B
100
AcDbEntity
 67
     1
  8
0
  6
Continuous
 62
     7
370
    15
100
AcDbCircle
 10
-76.8782217351
 20
-77.2724133595
 30
0.0
 40
1.699999999999989
  0
CIRCLE
  5
90
330
1B
100
AcDbEntity
 67
     1
  8
0
  6
Continuous
 62
     7
370
    15
100
AcDbCircle
 10
76.8782217351
 20
-77.2724133595
 30
0.0
 40
1.699999999999989
  0
CIRCLE
  5
91
330
1B
100
AcDbEntity
 67
     1
  8
0
  6
Continuous
 62
     7
370
    15
100
AcDbCircle
 10
-45.75
 20
61.25
 30
0.0
 40
1.699999999999989
  0
CIRCLE
  5
92
330
1B
100
AcDbEntity
 67
     1
  8
0
  6
Continuous
 62
     7
370
    15
100
AcDbCircle
 10
-45.75
 20
-15.25
 30
0.0
 40
1.699999999999982
  0
CIRCLE
  5
93
330
1B
100
AcDbEntity
 67
     1
  8
0
  6
Continuous
 62
     7
370
    15
100
AcDbCircle
 10
45.75
 20
-15.25
 30
0.0
 40
1.699999999999982
  0
CIRCLE
  5
94
330
1B
100
AcDbEntity
 67
     1
  8
0
  6
Continuous
 62
     7
370
    15
100
AcDbCircle
 10
45.75
 20
61.25
 30
0.0
 40
1.699999999999989
  0
CIRCLE
  5
95
330
1B
100
AcDbEntity
 67
     1
  8
0
  6
Continuous
 62
     7
370
    15
100
AcDbCircle
 10
-60.0
 20
-30.0
 30
0.0
 40
1.699999999999996
  0
CIRCLE
  5
96
330
1B
100
AcDbEntity
 67
     1
  8
0
  6
Continuous
 62
     7
370
    15
100
AcDbCircle
 10
60.0
 20
-30.0
 30
0.0
 40
1.699999999999982
  0
CIRCLE
  5
97
330
1B
100
AcDbEntity
 67
     1
  8
0
  6
Continuous
 62
     7
370
    15
100
AcDbCircle
 10
60.0
 20
-70.0
 30
0.0
 40
1.700000000000017
  0
CIRCLE
  5
98
330
1B
100
AcDbEntity
 67
     1
  8
0
  6
Continuous
 62
     7
370
    15
100
AcDbCircle
 10
-60.0
 20
-70.0
 30
0.0
 40
1.70000000000001
  0
LINE
  5
9D
330
1B
100
AcDbEntity
 67
     1
  8
0
  6
Continuous
 62
     7
370
    15
100
AcDbLine
 10
-81.0769515459
 20
-90.0
 30
0.0
 11
-90.0
 21
-74.544826719
 31
0.0
  0
LINE
  5
9E
330
1B
100
AcDbEntity
 67
     1
  8
0
  6
Continuous
 62
     7
370
    15
100
AcDbLine
 10
90.0
 20
-74.544826719
 30
0.0
 11
81.0769515459
 21
-90.0
 31
0.0
  0
LINE
  5
9F
330
1B
100
AcDbEntity
 67
     1
  8
0
  6
Continuous
 62
     7
370
    15
100
AcDbLine
 10
90.0
 20
90.0
 30
0.0
 11
-90.0
 21
90.0
 31
0.0
  0
LINE
  5
A0
330
1B
100
AcDbEntity
 67
     1
  8
0
  6
Continuous
 62
     7
370
    15
100
AcDbLine
 10
90.0
 20
-74.544826719
 30
0.0
 11
90.0
 21
90.0
 31
0.0
  0
LINE
  5
A1
330
1B
100
AcDbEntity
 67
     1
  8
0
  6
Continuous
 62
     7
370
    15
100
AcDbLine
 10
-81.0769515459
 20
-90.0
 30
0.0
 11
81.0769515459
 21
-90.0
 31
0.0
  0
LINE
  5
A2
330
1B
100
AcDbEntity
 67
     1
  8
0
  6
Continuous
 62
     7
370
    15
100
AcDbLine
 10
-90.0
 20
90.0
 30
0.0
 11
-90.0
 21
-74.544826719
 31
0.0
  0
VIEWPORT
  5
1C9
330
1B
100
AcDbEntity
 67
     1
  8
0
100
AcDbViewport
 10
0.0
 20
0.0
 30
0.0
 40
205.6
 41
156.0
 68
     1
 69
     1
 12
0.0
 22
0.0
 13
0.0
 23
0.0
 14
10.0
 24
10.0
 15
10.0
 25
10.0
 16
0.0
 26
0.0
 36
1.0
 17
0.0
 27
0.0
 37
0.0
 42
50.0
 43
0.0
 44
0.0
 45
183.6
 50
0.0
 51
0.0
 72
   100
 90
   557152
  1

281
     0
 71
     1
 74
     0
110
0.0
120
0.0
130
0.0
111
1.0
121
0.0
131
0.0
112
0.0
122
1.0
132
0.0
 79
     0
146
0.0
  0
ENDSEC
  0
SECTION
  2
OBJECTS
  0
DICTIONARY
  5
C
330
0
100
AcDbDictionary
281
     1
  3
ACAD_GROUP
350
D
  3
ACAD_LAYOUT
350
1A
  3
ACAD_MLINESTYLE
350
17
  3
ACAD_PLOTSETTINGS
350
19
  3
ACAD_PLOTSTYLENAME
350
E
  3
ACAD_SCALELIST
350
47
  0
DICTIONARY
  5
D
102
{ACAD_REACTORS
330
C
102
}
330
C
100
AcDbDictionary
281
     1
  0
DICTIONARY
  5
1A
102
{ACAD_REACTORS
330
C
102
}
330
C
100
AcDbDictionary
281
     1
  3
_G
350
188
  3
_W
350
BC
  3
_U
350
120
  3
_
350
15E
  3
_k
350
110
  3
_
350
100
  3
_
350
C8
  3
_e
350
26
  3
_
350
E4
  3
_
350
134
  3
Model
350
22
  3

350
1E
  0
DICTIONARY
  5
17
102
{ACAD_REACTORS
330
C
102
}
330
C
100
AcDbDictionary
281
     1
  3
Standard
350
18
  0
DICTIONARY
  5
19
102
{ACAD_REACTORS
330
C
102
}
330
C
100
AcDbDictionary
281
     1
  0
ACDBDICTIONARYWDFLT
  5
E
102
{ACAD_REACTORS
330
C
102
}
330
C
100
AcDbDictionary
281
     1
  3
Normal
350
F
100
AcDbDictionaryWithDefault
340
F
  0
DICTIONARY
  5
47
102
{ACAD_REACTORS
330
C
102
}
330
C
100
AcDbDictionary
281
     1
  3
A0
350
48
  3
A1
350
49
  3
A2
350
4A
  3
A3
350
4B
  3
A4
350
4C
  3
A5
350
4D
  3
A6
350
4E
  3
A7
350
4F
  3
A8
350
50
  3
A9
350
51
  3
B0
350
52
  3
B1
350
53
  3
B2
350
54
  3
B3
350
55
  3
B4
350
56
  3
B5
350
57
  3
B6
350
58
  3
B7
350
59
  3
B8
350
5A
  3
B9
350
5B
  3
C0
350
5C
  3
C1
350
5D
  3
C2
350
5E
  3
C3
350
5F
  3
C4
350
60
  3
C5
350
61
  3
C6
350
62
  3
C7
350
63
  3
C8
350
64
  3
C9
350
65
  3
D0
350
66
  3
D1
350
67
  3
D2
350
68
  0
LAYOUT
  5
188
102
{ACAD_REACTORS
330
1A
102
}
330
1A
100
AcDbPlotSettings
  1

  2
none_device
  4
ISO_A4_(210.00_x_297.00_MM)
  6

 40
7.5
 41
20.0
 42
7.5
 43
20.0
 44
210.0
 45
297.0
 46
0.0
 47
0.0
 48
0.0
 49
0.0
140
0.0
141
0.0
142
1.0
143
0.9230769231
 70
   688
 72
     1
 73
     1
 74
     1
  7

 75
     0
147
1.0833333333
148
90.0
149
90.0
100
AcDbLayout
  1
_G
 70
     1
 71
    11
 10
0.0
 20
0.0
 11
0.0
 21
0.0
 12
0.0
 22
0.0
 32
0.0
 14
0.0
 24
0.0
 34
0.0
 15
0.0
 25
0.0
 35
0.0
146
0.0
 13
0.0
 23
0.0
 33
0.0
 16
1.0
 26
0.0
 36
0.0
 17
0.0
 27
1.0
 37
0.0
 76
     0
330
187
331
1DD
  0
LAYOUT
  5
BC
102
{ACAD_REACTORS
330
1A
102
}
330
1A
100
AcDbPlotSettings
  1

  2
none_device
  4
ISO_A4_(210.00_x_297.00_MM)
  6

 40
7.5
 41
20.0
 42
7.5
 43
20.0
 44
210.0
 45
297.0
 46
0.0
 47
0.0
 48
0.0
 49
0.0
140
0.0
141
0.0
142
1.0
143
0.9230769231
 70
   688
 72
     1
 73
     1
 74
     1
  7

 75
     0
147
1.0833333333
148
90.0
149
90.0
100
AcDbLayout
  1
_W
 70
     1
 71
     3
 10
0.0
 20
0.0
 11
0.0
 21
0.0
 12
0.0
 22
0.0
 32
0.0
 14
0.0
 24
0.0
 34
0.0
 15
0.0
 25
0.0
 35
0.0
146
0.0
 13
0.0
 23
0.0
 33
0.0
 16
1.0
 26
0.0
 36
0.0
 17
0.0
 27
1.0
 37
0.0
 76
     0
330
BB
331
1CD
  0
LAYOUT
  5
120
102
{ACAD_REACTORS
330
1A
102
}
330
1A
100
AcDbPlotSettings
  1

  2
none_device
  4
ISO_A4_(210.00_x_297.00_MM)
  6

 40
7.5
 41
20.0
 42
7.5
 43
20.0
 44
210.0
 45
297.0
 46
0.0
 47
0.0
 48
0.0
 49
0.0
140
0.0
141
0.0
142
1.0
143
0.9230769231
 70
   688
 72
     1
 73
     1
 74
     1
  7

 75
     0
147
1.0833333333
148
90.0
149
90.0
100
AcDbLayout
  1
_U
 70
     1
 71
     8
 10
0.0
 20
0.0
 11
0.0
 21
0.0
 12
0.0
 22
0.0
 32
0.0
 14
0.0
 24
0.0
 34
0.0
 15
0.0
 25
0.0
 35
0.0
146
0.0
 13
0.0
 23
0.0
 33
0.0
 16
1.0
 26
0.0
 36
0.0
 17
0.0
 27
1.0
 37
0.0
 76
     0
330
11F
331
1D7
  0
LAYOUT
  5
15E
102
{ACAD_REACTORS
330
1A
102
}
330
1A
100
AcDbPlotSettings
  1

  2
none_device
  4
ISO_A4_(210.00_x_297.00_MM)
  6

 40
7.5
 41
20.0
 42
7.5
 43
20.0
 44
210.0
 45
297.0
 46
0.0
 47
0.0
 48
0.0
 49
0.0
140
0.0
141
0.0
142
1.0
143
0.9230769231
 70
   688
 72
     1
 73
     1
 74
     1
  7

 75
     0
147
1.0833333333
148
90.0
149
90.0
100
AcDbLayout
  1
_
 70
     1
 71
    10
 10
0.0
 20
0.0
 11
0.0
 21
0.0
 12
0.0
 22
0.0
 32
0.0
 14
0.0
 24
0.0
 34
0.0
 15
0.0
 25
0.0
 35
0.0
146
0.0
 13
0.0
 23
0.0
 33
0.0
 16
1.0
 26
0.0
 36
0.0
 17
0.0
 27
1.0
 37
0.0
 76
     0
330
15D
331
1DB
  0
LAYOUT
  5
110
102
{ACAD_REACTORS
330
1A
102
}
330
1A
100
AcDbPlotSettings
  1

  2
none_device
  4
ISO_A4_(210.00_x_297.00_MM)
  6

 40
7.5
 41
20.0
 42
7.5
 43
20.0
 44
210.0
 45
297.0
 46
0.0
 47
0.0
 48
0.0
 49
0.0
140
0.0
141
0.0
142
1.0
143
0.9230769231
 70
   688
 72
     1
 73
     1
 74
     1
  7

 75
     0
147
1.0833333333
148
90.0
149
90.0
100
AcDbLayout
  1
_k
 70
     1
 71
     7
 10
0.0
 20
0.0
 11
0.0
 21
0.0
 12
0.0
 22
0.0
 32
0.0
 14
0.0
 24
0.0
 34
0.0
 15
0.0
 25
0.0
 35
0.0
146
0.0
 13
0.0
 23
0.0
 33
0.0
 16
1.0
 26
0.0
 36
0.0
 17
0.0
 27
1.0
 37
0.0
 76
     0
330
10F
331
1D5
  0
LAYOUT
  5
100
102
{ACAD_REACTORS
330
1A
102
}
330
1A
100
AcDbPlotSettings
  1

  2
none_device
  4
ISO_A4_(210.00_x_297.00_MM)
  6

 40
7.5
 41
20.0
 42
7.5
 43
20.0
 44
210.0
 45
297.0
 46
0.0
 47
0.0
 48
0.0
 49
0.0
140
0.0
141
0.0
142
1.0
143
0.9230769231
 70
   688
 72
     1
 73
     1
 74
     1
  7

 75
     0
147
1.0833333333
148
90.0
149
90.0
100
AcDbLayout
  1
_
 70
     1
 71
     6
 10
0.0
 20
0.0
 11
0.0
 21
0.0
 12
0.0
 22
0.0
 32
0.0
 14
0.0
 24
0.0
 34
0.0
 15
0.0
 25
0.0
 35
0.0
146
0.0
 13
0.0
 23
0.0
 33
0.0
 16
1.0
 26
0.0
 36
0.0
 17
0.0
 27
1.0
 37
0.0
 76
     0
330
FF
331
1D3
  0
LAYOUT
  5
C8
102
{ACAD_REACTORS
330
1A
102
}
330
1A
100
AcDbPlotSettings
  1

  2
none_device
  4
ISO_A4_(210.00_x_297.00_MM)
  6

 40
7.5
 41
20.0
 42
7.5
 43
20.0
 44
210.0
 45
297.0
 46
0.0
 47
0.0
 48
0.0
 49
0.0
140
0.0
141
0.0
142
1.0
143
0.9230769231
 70
   688
 72
     1
 73
     1
 74
     1
  7

 75
     0
147
1.0833333333
148
90.0
149
90.0
100
AcDbLayout
  1
_
 70
     1
 71
     4
 10
0.0
 20
0.0
 11
0.0
 21
0.0
 12
0.0
 22
0.0
 32
0.0
 14
0.0
 24
0.0
 34
0.0
 15
0.0
 25
0.0
 35
0.0
146
0.0
 13
0.0
 23
0.0
 33
0.0
 16
1.0
 26
0.0
 36
0.0
 17
0.0
 27
1.0
 37
0.0
 76
     0
330
C7
331
1CF
  0
LAYOUT
  5
26
102
{ACAD_REACTORS
330
1A
102
}
330
1A
100
AcDbPlotSettings
  1

  2
none_device
  4
ISO_A4_(210.00_x_297.00_MM)
  6

 40
7.5
 41
20.0
 42
7.5
 43
20.0
 44
210.0
 45
297.0
 46
0.0
 47
0.0
 48
0.0
 49
0.0
140
0.0
141
0.0
142
1.0
143
0.9230769231
 70
   688
 72
     1
 73
     1
 74
     1
  7

 75
     0
147
1.0833333333
148
90.0
149
90.0
100
AcDbLayout
  1
_e
 70
     1
 71
     2
 10
0.0
 20
0.0
 11
0.0
 21
0.0
 12
0.0
 22
0.0
 32
0.0
 14
0.0
 24
0.0
 34
0.0
 15
0.0
 25
0.0
 35
0.0
146
0.0
 13
0.0
 23
0.0
 33
0.0
 16
1.0
 26
0.0
 36
0.0
 17
0.0
 27
1.0
 37
0.0
 76
     0
330
23
331
1CB
  0
LAYOUT
  5
E4
102
{ACAD_REACTORS
330
1A
102
}
330
1A
100
AcDbPlotSettings
  1

  2
none_device
  4
ISO_A4_(210.00_x_297.00_MM)
  6

 40
7.5
 41
20.0
 42
7.5
 43
20.0
 44
210.0
 45
297.0
 46
0.0
 47
0.0
 48
0.0
 49
0.0
140
0.0
141
0.0
142
1.0
143
0.9230769231
 70
   688
 72
     1
 73
     1
 74
     1
  7

 75
     0
147
1.0833333333
148
90.0
149
90.0
100
AcDbLayout
  1
_
 70
     1
 71
     5
 10
0.0
 20
0.0
 11
0.0
 21
0.0
 12
0.0
 22
0.0
 32
0.0
 14
0.0
 24
0.0
 34
0.0
 15
0.0
 25
0.0
 35
0.0
146
0.0
 13
0.0
 23
0.0
 33
0.0
 16
1.0
 26
0.0
 36
0.0
 17
0.0
 27
1.0
 37
0.0
 76
     0
330
E3
331
1D1
  0
LAYOUT
  5
134
102
{ACAD_REACTORS
330
1A
102
}
330
1A
100
AcDbPlotSettings
  1

  2
none_device
  4
ISO_A4_(210.00_x_297.00_MM)
  6

 40
7.5
 41
20.0
 42
7.5
 43
20.0
 44
210.0
 45
297.0
 46
0.0
 47
0.0
 48
0.0
 49
0.0
140
0.0
141
0.0
142
1.0
143
0.9230769231
 70
   688
 72
     1
 73
     1
 74
     1
  7

 75
     0
147
1.0833333333
148
90.0
149
90.0
100
AcDbLayout
  1
_
 70
     1
 71
     9
 10
0.0
 20
0.0
 11
0.0
 21
0.0
 12
0.0
 22
0.0
 32
0.0
 14
0.0
 24
0.0
 34
0.0
 15
0.0
 25
0.0
 35
0.0
146
0.0
 13
0.0
 23
0.0
 33
0.0
 16
1.0
 26
0.0
 36
0.0
 17
0.0
 27
1.0
 37
0.0
 76
     0
330
133
331
1D9
  0
LAYOUT
  5
22
102
{ACAD_REACTORS
330
1A
102
}
330
1A
100
AcDbPlotSettings
  1

  2
none_device
  4
ANSI_A_(11.00_x_8.50_Inches)
  6

 40
6.35
 41
19.05
 42
6.35000508
 43
19.05000254
 44
279.4
 45
215.9
 46
133.34999746
 47
88.89999873
 48
0.0
 49
0.0
140
0.0
141
0.0
142
0.04675
143
1.0
 70
  1696
 72
     0
 73
     0
 74
     0
  7

 75
     0
147
0.0179189148
148
-1300.4909072572
149
0.0
100
AcDbLayout
  1
Model
 70
     1
 71
     0
 10
0.0
 20
0.0
 11
420.0
 21
297.0
 12
0.0
 22
0.0
 32
0.0
 14
-90.0
 24
-90.0
 34
0.0
 15
90.0
 25
90.0
 35
0.0
146
0.0
 13
0.0
 23
0.0
 33
0.0
 16
1.0
 26
0.0
 36
0.0
 17
0.0
 27
1.0
 37
0.0
 76
     0
330
1F
331
29
  0
LAYOUT
  5
1E
102
{ACAD_REACTORS
330
1A
102
}
330
1A
100
AcDbPlotSettings
  1

  2
none_device
  4
ISO_A4_(210.00_x_297.00_MM)
  6

 40
7.5
 41
20.0
 42
7.5
 43
20.0
 44
210.0
 45
297.0
 46
0.0
 47
0.0
 48
0.0
 49
0.0
140
0.0
141
0.0
142
1.0
143
0.9230769231
 70
   688
 72
     1
 73
     1
 74
     1
  7

 75
     0
147
1.0833333333
148
90.0
149
90.0
100
AcDbLayout
  1

 70
     1
 71
     1
 10
-108.4615384615
 20
-96.9230769231
 11
165.6923076923
 21
96.9230769231
 12
0.0
 22
0.0
 32
0.0
 14
-90.0
 24
-90.0
 34
0.0
 15
90.0
 25
90.0
 35
0.0
146
0.0
 13
0.0
 23
0.0
 33
0.0
 16
1.0
 26
0.0
 36
0.0
 17
0.0
 27
1.0
 37
0.0
 76
     0
330
1B
331
1C9
  0
MLINESTYLE
  5
18
102
{ACAD_REACTORS
330
17
102
}
330
17
100
AcDbMlineStyle
  2
Standard
 70
     0
  3

 62
   256
 51
90.0
 52
90.0
 71
     2
 49
0.5
 62
   256
  6
BYLAYER
 49
-0.5
 62
   256
  6
BYLAYER
  0
ACDBPLACEHOLDER
  5
F
102
{ACAD_REACTORS
330
E
102
}
330
E
  0
SCALE
  5
48
102
{ACAD_REACTORS
330
47
102
}
330
47
100
AcDbScale
 70
     0
300
1:1
140
1.0
141
1.0
290
     1
  0
SCALE
  5
49
102
{ACAD_REACTORS
330
47
102
}
330
47
100
AcDbScale
 70
     0
300
1:2
140
1.0
141
2.0
290
     0
  0
SCALE
  5
4A
102
{ACAD_REACTORS
330
47
102
}
330
47
100
AcDbScale
 70
     0
300
1:4
140
1.0
141
4.0
290
     0
  0
SCALE
  5
4B
102
{ACAD_REACTORS
330
47
102
}
330
47
100
AcDbScale
 70
     0
300
1:5
140
1.0
141
5.0
290
     0
  0
SCALE
  5
4C
102
{ACAD_REACTORS
330
47
102
}
330
47
100
AcDbScale
 70
     0
300
1:8
140
1.0
141
8.0
290
     0
  0
SCALE
  5
4D
102
{ACAD_REACTORS
330
47
102
}
330
47
100
AcDbScale
 70
     0
300
1:10
140
1.0
141
10.0
290
     0
  0
SCALE
  5
4E
102
{ACAD_REACTORS
330
47
102
}
330
47
100
AcDbScale
 70
     0
300
1:16
140
1.0
141
16.0
290
     0
  0
SCALE
  5
4F
102
{ACAD_REACTORS
330
47
102
}
330
47
100
AcDbScale
 70
     0
300
1:20
140
1.0
141
20.0
290
     0
  0
SCALE
  5
50
102
{ACAD_REACTORS
330
47
102
}
330
47
100
AcDbScale
 70
     0
300
1:30
140
1.0
141
30.0
290
     0
  0
SCALE
  5
51
102
{ACAD_REACTORS
330
47
102
}
330
47
100
AcDbScale
 70
     0
300
1:40
140
1.0
141
40.0
290
     0
  0
SCALE
  5
52
102
{ACAD_REACTORS
330
47
102
}
330
47
100
AcDbScale
 70
     0
300
1:50
140
1.0
141
50.0
290
     0
  0
SCALE
  5
53
102
{ACAD_REACTORS
330
47
102
}
330
47
100
AcDbScale
 70
     0
300
1:100
140
1.0
141
100.0
290
     0
  0
SCALE
  5
54
102
{ACAD_REACTORS
330
47
102
}
330
47
100
AcDbScale
 70
     0
300
2:1
140
2.0
141
1.0
290
     0
  0
SCALE
  5
55
102
{ACAD_REACTORS
330
47
102
}
330
47
100
AcDbScale
 70
     0
300
4:1
140
4.0
141
1.0
290
     0
  0
SCALE
  5
56
102
{ACAD_REACTORS
330
47
102
}
330
47
100
AcDbScale
 70
     0
300
8:1
140
8.0
141
1.0
290
     0
  0
SCALE
  5
57
102
{ACAD_REACTORS
330
47
102
}
330
47
100
AcDbScale
 70
     0
300
10:1
140
10.0
141
1.0
290
     0
  0
SCALE
  5
58
102
{ACAD_REACTORS
330
47
102
}
330
47
100
AcDbScale
 70
     0
300
100:1
140
100.0
141
1.0
290
     0
  0
SCALE
  5
59
102
{ACAD_REACTORS
330
47
102
}
330
47
100
AcDbScale
 70
     0
300
1/128" = 1'-0"
140
0.0078125
141
12.0
290
     0
  0
SCALE
  5
5A
102
{ACAD_REACTORS
330
47
102
}
330
47
100
AcDbScale
 70
     0
300
1/64" = 1'-0"
140
0.015625
141
12.0
290
     0
  0
SCALE
  5
5B
102
{ACAD_REACTORS
330
47
102
}
330
47
100
AcDbScale
 70
     0
300
1/32" = 1'-0"
140
0.03125
141
12.0
290
     0
  0
SCALE
  5
5C
102
{ACAD_REACTORS
330
47
102
}
330
47
100
AcDbScale
 70
     0
300
1/16" = 1'-0"
140
0.0625
141
12.0
290
     0
  0
SCALE
  5
5D
102
{ACAD_REACTORS
330
47
102
}
330
47
100
AcDbScale
 70
     0
300
3/32" = 1'-0"
140
0.09375
141
12.0
290
     0
  0
SCALE
  5
5E
102
{ACAD_REACTORS
330
47
102
}
330
47
100
AcDbScale
 70
     0
300
1/8" = 1'-0"
140
0.125
141
12.0
290
     0
  0
SCALE
  5
5F
102
{ACAD_REACTORS
330
47
102
}
330
47
100
AcDbScale
 70
     0
300
3/16" = 1'-0"
140
0.1875
141
12.0
290
     0
  0
SCALE
  5
60
102
{ACAD_REACTORS
330
47
102
}
330
47
100
AcDbScale
 70
     0
300
1/4" = 1'-0"
140
0.25
141
12.0
290
     0
  0
SCALE
  5
61
102
{ACAD_REACTORS
330
47
102
}
330
47
100
AcDbScale
 70
     0
300
3/8" = 1'-0"
140
0.375
141
12.0
290
     0
  0
SCALE
  5
62
102
{ACAD_REACTORS
330
47
102
}
330
47
100
AcDbScale
 70
     0
300
1/2" = 1'-0"
140
0.5
141
12.0
290
     0
  0
SCALE
  5
63
102
{ACAD_REACTORS
330
47
102
}
330
47
100
AcDbScale
 70
     0
300
3/4" = 1'-0"
140
0.75
141
12.0
290
     0
  0
SCALE
  5
64
102
{ACAD_REACTORS
330
47
102
}
330
47
100
AcDbScale
 70
     0
300
1" = 1'-0"
140
1.0
141
12.0
290
     0
  0
SCALE
  5
65
102
{ACAD_REACTORS
330
47
102
}
330
47
100
AcDbScale
 70
     0
300
1-1/2" = 1'-0"
140
1.5
141
12.0
290
     0
  0
SCALE
  5
66
102
{ACAD_REACTORS
330
47
102
}
330
47
100
AcDbScale
 70
     0
300
3" = 1'-0"
140
3.0
141
12.0
290
     0
  0
SCALE
  5
67
102
{ACAD_REACTORS
330
47
102
}
330
47
100
AcDbScale
 70
     0
300
6" = 1'-0"
140
6.0
141
12.0
290
     0
  0
SCALE
  5
68
102
{ACAD_REACTORS
330
47
102
}
330
47
100
AcDbScale
 70
     0
300
1'-0" = 1'-0"
140
12.0
141
12.0
290
     0
  0
ENDSEC
  0
EOF
